<?xml version="1.0" encoding="utf-8"?>
<!-- Generator: Adobe Illustrator 21.0.0, SVG Export Plug-In . SVG Version: 6.00 Build 0)  -->
<svg version="1.1" id="Capa_1" xmlns="http://www.w3.org/2000/svg" xmlns:xlink="http://www.w3.org/1999/xlink" x="0px" y="0px"
	 viewBox="0 0 487 487" style="enable-background:new 0 0 487 487;" xml:space="preserve">
<style type="text/css">
	.st0{fill:#FFFFFF;}
	.st1{fill:#2135D5;}
	.st2{fill:#FFBC53;}
	.st3{fill:#FE6663;}
	.st4{fill:#9AD8FF;}
</style>
<path class="st0" d="M371.6,471.8H33.8c-10.3,0-18.6-8.3-18.6-18.6V33.8c0-10.3,8.3-18.6,18.6-18.6h337.8c10.3,0,18.6,8.3,18.6,18.6
	v419.5C390.1,463.5,381.8,471.8,371.6,471.8z"/>
<circle class="st1" cx="202.7" cy="141.4" r="76.1"/>
<path class="st0" d="M226.8,131.7v6c0,13.3-10.8,24.1-24.1,24.1l0,0l0,0c-13.3,0-24.1-10.8-24.1-24.1v-6c0-13.3,10.8-24.1,24.1-24.1
	l0,0C216,107.5,226.8,118.3,226.8,131.7z"/>
<path class="st0" d="M202.7,161.8L202.7,161.8c-23.6,0-43.7,14.6-51.8,35.3c13.6,12.6,31.8,20.4,51.8,20.4s38.2-7.7,51.8-20.4
	C246.4,176.5,226.2,161.8,202.7,161.8z"/>
<path class="st2" d="M411.1,155l5.3-9.2c8.2-14.2,26.4-19.1,40.6-10.9l0,0c14.2,8.2,19.1,26.4,10.9,40.6L351,377.8l-51.4-29.7
	l50.4-87.3L411.1,155z"/>
<path class="st3" d="M457,134.9L457,134.9c-14.2-8.2-32.4-3.3-40.6,10.9l-13.8,23.9l51.4,29.7l13.8-23.9
	C476,161.3,471.2,143.1,457,134.9z"/>
<polygon class="st4" points="351,377.8 291.4,421.7 299.6,348.1 "/>
<path d="M390.1,375.6c-5.1,0-9.3,4.2-9.3,9.3v68.4c0,5.1-4.2,9.3-9.3,9.3H33.8c-5.1,0-9.3-4.2-9.3-9.3V33.8c0-5.1,4.2-9.3,9.3-9.3
	h337.8c5.1,0,9.3,4.2,9.3,9.3v100.9c0,5.1,4.2,9.3,9.3,9.3s9.3-4.2,9.3-9.3V33.8c0-15.4-12.5-27.8-27.8-27.8H33.8
	C18.4,5.9,5.9,18.4,5.9,33.8v419.5c0,15.4,12.5,27.8,27.8,27.8h337.8c15.4,0,27.8-12.5,27.8-27.8v-68.4
	C399.4,379.7,395.3,375.6,390.1,375.6z"/>
<path d="M288.1,141.4c0-47.1-38.3-85.4-85.4-85.4s-85.4,38.3-85.4,85.4c0,24.4,10.3,46.5,26.8,62.1c0.3,0.3,0.6,0.6,1,0.9
	c15.2,13.9,35.4,22.4,57.6,22.4s42.4-8.5,57.6-22.4c0.4-0.3,0.7-0.6,1-0.9C277.7,187.9,288.1,165.8,288.1,141.4z M202.7,74.6
	c36.8,0,66.8,30,66.8,66.8c0,14.8-4.9,28.5-13,39.6c-6.8-10.2-16.3-18-27.3-22.9c4.4-5.6,7-12.7,7-20.4v-6c0-18.4-15-33.4-33.4-33.4
	s-33.4,15-33.4,33.4v6c0,7.7,2.6,14.8,7,20.4c-11,4.9-20.5,12.8-27.3,22.9c-8.2-11.1-13-24.8-13-39.6
	C135.9,104.6,165.8,74.6,202.7,74.6z M187.8,137.7v-6c0-8.2,6.7-14.8,14.8-14.8c8.2,0,14.8,6.7,14.8,14.8v6
	c0,8.2-6.7,14.8-14.8,14.8C194.5,152.5,187.8,145.9,187.8,137.7z M162.3,194.6c8.2-14.5,23.4-23.5,40.4-23.5s32.2,9,40.4,23.5
	c-11.2,8.5-25.2,13.6-40.4,13.6C187.5,208.2,173.5,203.2,162.3,194.6z"/>
<path d="M252.8,412.4h-50.1c-5.1,0-9.3,4.2-9.3,9.3c0,5.1,4.2,9.3,9.3,9.3h50.1c5.1,0,9.3-4.2,9.3-9.3
	C262.1,416.6,257.9,412.4,252.8,412.4z"/>
<path d="M252.8,360.4H121c-5.1,0-9.3,4.2-9.3,9.3c0,5.1,4.2,9.3,9.3,9.3h131.8c5.1,0,9.3-4.2,9.3-9.3
	C262.1,364.6,257.9,360.4,252.8,360.4z"/>
<path d="M252.8,308.5H121c-5.1,0-9.3,4.2-9.3,9.3c0,5.1,4.2,9.3,9.3,9.3h131.8c5.1,0,9.3-4.2,9.3-9.3
	C262.1,312.6,257.9,308.5,252.8,308.5z"/>
<path d="M87.9,259.2c-1.7-1.7-4.1-2.7-6.6-2.7c-2.4,0-4.8,1-6.6,2.7c-1.7,1.7-2.7,4.1-2.7,6.6c0,2.4,1,4.8,2.7,6.6
	c1.7,1.7,4.1,2.7,6.6,2.7c2.5,0,4.8-1,6.6-2.7c1.7-1.7,2.7-4.1,2.7-6.6C90.6,263.3,89.7,260.9,87.9,259.2z"/>
<path d="M87.9,311.2c-1.7-1.7-4.1-2.7-6.6-2.7c-2.4,0-4.8,1-6.6,2.7c-1.7,1.7-2.7,4.1-2.7,6.6s1,4.8,2.7,6.6
	c1.7,1.7,4.1,2.7,6.6,2.7c2.5,0,4.8-1,6.6-2.7c1.7-1.7,2.7-4.1,2.7-6.6S89.7,312.9,87.9,311.2z"/>
<path d="M81.4,360.4c-2.4,0-4.8,1-6.6,2.7c-1.7,1.7-2.7,4.1-2.7,6.6s1,4.8,2.7,6.6c1.7,1.7,4.1,2.7,6.6,2.7c2.5,0,4.8-1,6.6-2.7
	c1.7-1.7,2.7-4.1,2.7-6.6s-1-4.8-2.7-6.6C86.2,361.4,83.8,360.4,81.4,360.4z"/>
<path d="M252.8,256.5H121c-5.1,0-9.3,4.2-9.3,9.3c0,5.1,4.2,9.3,9.3,9.3h131.8c5.1,0,9.3-4.2,9.3-9.3
	C262.1,260.6,257.9,256.5,252.8,256.5z"/>
<path d="M461.6,126.9c-9-5.2-19.5-6.6-29.6-3.9c-10.1,2.7-18.5,9.1-23.7,18.2L291.6,343.4c-0.6,1.1-1,2.3-1.2,3.6l-8.2,73.6
	c-0.4,3.7,1.4,7.2,4.6,9.1c1.4,0.8,3,1.2,4.6,1.2c1.9,0,3.9-0.6,5.5-1.8l59.7-43.9c1-0.8,1.9-1.7,2.5-2.8l116.8-202.3
	C486.6,161.5,480.2,137.6,461.6,126.9z M307.2,363.2l26.9,15.5L303,401.6L307.2,363.2z M347.6,365.1l-35.4-20.4L406,182.3l35.4,20.4
	L347.6,365.1z M459.8,170.8l-9.1,15.8l-35.4-20.4l9.1-15.8c2.7-4.7,7.1-8.1,12.4-9.5c5.3-1.4,10.8-0.7,15.5,2
	c4.7,2.7,8.1,7.1,9.5,12.4C463.2,160.6,462.5,166.1,459.8,170.8z"/>
</svg>
