<?xml version="1.0" encoding="iso-8859-1"?>
<!-- Generator: Adobe Illustrator 19.0.0, SVG Export Plug-In . SVG Version: 6.00 Build 0)  -->
<svg version="1.1" id="Capa_1" xmlns="http://www.w3.org/2000/svg" xmlns:xlink="http://www.w3.org/1999/xlink" x="0px" y="0px"
	 viewBox="0 0 480.005 480.005" style="enable-background:new 0 0 480.005 480.005;" xml:space="preserve">
<linearGradient id="SVGID_1_" gradientUnits="userSpaceOnUse" x1="-56.4795" y1="587.6247" x2="3.6575" y2="587.6247" gradientTransform="matrix(8 0 0 -8 454.9822 4941)">
	<stop  offset="0" style="stop-color:#4761AC"/>
	<stop  offset="1" style="stop-color:#54C2EF"/>
</linearGradient>
<path style="fill:url(#SVGID_1_);" d="M40.003,64h16v272h168.352l-94.84,131.312c-2.589,3.583-1.783,8.587,1.8,11.176
	c3.583,2.589,8.587,1.783,11.176-1.8l89.512-123.944V472c0,4.418,3.582,8,8,8s8-3.582,8-8V352.744l89.512,123.944
	c2.589,3.583,7.593,4.389,11.176,1.8c3.583-2.589,4.389-7.593,1.8-11.176l0,0L255.651,336h168.352V64h16V0h-400V64z M408.003,320
	h-336V64h336V320z M56.003,16h368v32h-368V16z"/>
<g>
	
		<linearGradient id="SVGID_2_" gradientUnits="userSpaceOnUse" x1="-56.4795" y1="584.619" x2="3.6575" y2="584.619" gradientTransform="matrix(8 0 0 -8 454.9822 4941)">
		<stop  offset="0" style="stop-color:#4761AC"/>
		<stop  offset="1" style="stop-color:#54C2EF"/>
	</linearGradient>
	<path style="fill:url(#SVGID_2_);" d="M274.347,266.344c-3.123,3.124-3.123,8.188,0,11.312l24,24c3.124,3.123,8.188,3.123,11.312,0
		l64-64c3.069-3.178,2.982-8.243-0.196-11.312c-3.1-2.994-8.015-2.994-11.116,0l-58.344,58.344l-18.344-18.344
		C282.535,263.221,277.471,263.221,274.347,266.344L274.347,266.344z"/>
	
		<linearGradient id="SVGID_3_" gradientUnits="userSpaceOnUse" x1="-56.4795" y1="597.625" x2="3.6575" y2="597.625" gradientTransform="matrix(8 0 0 -8 454.9822 4941)">
		<stop  offset="0" style="stop-color:#4761AC"/>
		<stop  offset="1" style="stop-color:#54C2EF"/>
	</linearGradient>
	<path style="fill:url(#SVGID_3_);" d="M160.003,240c36.645-0.05,67.42-27.586,71.528-64h8.472c4.418,0,8-3.582,8-8s-3.582-8-8-8
		h-8.472c-3.781-33.395-30.133-59.747-63.528-63.528V88c0-4.418-3.582-8-8-8s-8,3.582-8,8v8.472
		c-39.504,4.544-67.845,40.252-63.301,79.756C92.872,212.483,123.508,239.885,160.003,240z M215.363,160h-47.36v-47.36
		C192.531,116.206,211.796,135.472,215.363,160z M152.003,112.64V168c0,4.418,3.582,8,8,8h55.36
		c-4.376,30.617-32.743,51.889-63.36,47.513c-30.617-4.376-51.889-32.743-47.513-63.36
		C108.01,135.518,127.367,116.161,152.003,112.64z"/>
	
		<linearGradient id="SVGID_4_" gradientUnits="userSpaceOnUse" x1="-56.4795" y1="580.625" x2="3.6575" y2="580.625" gradientTransform="matrix(8 0 0 -8 454.9822 4941)">
		<stop  offset="0" style="stop-color:#4761AC"/>
		<stop  offset="1" style="stop-color:#54C2EF"/>
	</linearGradient>
	<path style="fill:url(#SVGID_4_);" d="M88.003,288h16v16h-16V288z"/>
	
		<linearGradient id="SVGID_5_" gradientUnits="userSpaceOnUse" x1="-56.4795" y1="580.625" x2="3.6575" y2="580.625" gradientTransform="matrix(8 0 0 -8 454.9822 4941)">
		<stop  offset="0" style="stop-color:#4761AC"/>
		<stop  offset="1" style="stop-color:#54C2EF"/>
	</linearGradient>
	<path style="fill:url(#SVGID_5_);" d="M120.003,288h120v16h-120V288z"/>
	
		<linearGradient id="SVGID_6_" gradientUnits="userSpaceOnUse" x1="-56.4795" y1="584.625" x2="3.6575" y2="584.625" gradientTransform="matrix(8 0 0 -8 454.9822 4941)">
		<stop  offset="0" style="stop-color:#4761AC"/>
		<stop  offset="1" style="stop-color:#54C2EF"/>
	</linearGradient>
	<path style="fill:url(#SVGID_6_);" d="M88.003,256h16v16h-16V256z"/>
	
		<linearGradient id="SVGID_7_" gradientUnits="userSpaceOnUse" x1="-56.4795" y1="584.625" x2="3.6575" y2="584.625" gradientTransform="matrix(8 0 0 -8 454.9822 4941)">
		<stop  offset="0" style="stop-color:#4761AC"/>
		<stop  offset="1" style="stop-color:#54C2EF"/>
	</linearGradient>
	<path style="fill:url(#SVGID_7_);" d="M120.003,256h120v16h-120V256z"/>
	
		<linearGradient id="SVGID_8_" gradientUnits="userSpaceOnUse" x1="-56.4795" y1="600.625" x2="3.6575" y2="600.625" gradientTransform="matrix(8 0 0 -8 454.9822 4941)">
		<stop  offset="0" style="stop-color:#4761AC"/>
		<stop  offset="1" style="stop-color:#54C2EF"/>
	</linearGradient>
	<path style="fill:url(#SVGID_8_);" d="M264.003,128h16v16h-16V128z"/>
	
		<linearGradient id="SVGID_9_" gradientUnits="userSpaceOnUse" x1="-56.4795" y1="600.625" x2="3.6575" y2="600.625" gradientTransform="matrix(8 0 0 -8 454.9822 4941)">
		<stop  offset="0" style="stop-color:#4761AC"/>
		<stop  offset="1" style="stop-color:#54C2EF"/>
	</linearGradient>
	<path style="fill:url(#SVGID_9_);" d="M296.003,128h96v16h-96V128z"/>
	
		<linearGradient id="SVGID_10_" gradientUnits="userSpaceOnUse" x1="-56.4795" y1="604.625" x2="3.6575" y2="604.625" gradientTransform="matrix(8 0 0 -8 454.9822 4941)">
		<stop  offset="0" style="stop-color:#4761AC"/>
		<stop  offset="1" style="stop-color:#54C2EF"/>
	</linearGradient>
	<path style="fill:url(#SVGID_10_);" d="M264.003,96h16v16h-16V96z"/>
	
		<linearGradient id="SVGID_11_" gradientUnits="userSpaceOnUse" x1="-56.4795" y1="604.625" x2="3.6575" y2="604.625" gradientTransform="matrix(8 0 0 -8 454.9822 4941)">
		<stop  offset="0" style="stop-color:#4761AC"/>
		<stop  offset="1" style="stop-color:#54C2EF"/>
	</linearGradient>
	<path style="fill:url(#SVGID_11_);" d="M296.003,96h96v16h-96V96z"/>
	
		<linearGradient id="SVGID_12_" gradientUnits="userSpaceOnUse" x1="-56.4795" y1="592.625" x2="3.6575" y2="592.625" gradientTransform="matrix(8 0 0 -8 454.9822 4941)">
		<stop  offset="0" style="stop-color:#4761AC"/>
		<stop  offset="1" style="stop-color:#54C2EF"/>
	</linearGradient>
	<path style="fill:url(#SVGID_12_);" d="M264.003,192h16v16h-16V192z"/>
	
		<linearGradient id="SVGID_13_" gradientUnits="userSpaceOnUse" x1="-56.4795" y1="592.625" x2="3.6575" y2="592.625" gradientTransform="matrix(8 0 0 -8 454.9822 4941)">
		<stop  offset="0" style="stop-color:#4761AC"/>
		<stop  offset="1" style="stop-color:#54C2EF"/>
	</linearGradient>
	<path style="fill:url(#SVGID_13_);" d="M296.003,192h96v16h-96V192z"/>
	
		<linearGradient id="SVGID_14_" gradientUnits="userSpaceOnUse" x1="-56.4795" y1="596.625" x2="3.6575" y2="596.625" gradientTransform="matrix(8 0 0 -8 454.9822 4941)">
		<stop  offset="0" style="stop-color:#4761AC"/>
		<stop  offset="1" style="stop-color:#54C2EF"/>
	</linearGradient>
	<path style="fill:url(#SVGID_14_);" d="M264.003,160h16v16h-16V160z"/>
	
		<linearGradient id="SVGID_15_" gradientUnits="userSpaceOnUse" x1="-56.4795" y1="596.625" x2="3.6575" y2="596.625" gradientTransform="matrix(8 0 0 -8 454.9822 4941)">
		<stop  offset="0" style="stop-color:#4761AC"/>
		<stop  offset="1" style="stop-color:#54C2EF"/>
	</linearGradient>
	<path style="fill:url(#SVGID_15_);" d="M296.003,160h96v16h-96V160z"/>
</g>
<g>
</g>
<g>
</g>
<g>
</g>
<g>
</g>
<g>
</g>
<g>
</g>
<g>
</g>
<g>
</g>
<g>
</g>
<g>
</g>
<g>
</g>
<g>
</g>
<g>
</g>
<g>
</g>
<g>
</g>
</svg>
