<svg xmlns="http://www.w3.org/2000/svg" xmlns:xlink="http://www.w3.org/1999/xlink" width="118" height="118" viewBox="0 0 118 118"><defs><linearGradient id="a" x1="0.5" x2="0.5" y2="1" gradientUnits="objectBoundingBox"><stop offset="0" stop-color="#4761ac"/><stop offset="1" stop-color="#54c2ef"/></linearGradient></defs><g transform="translate(-1216 -1190)"><g transform="translate(1216 1190)" fill="#fff" stroke="#2135d5" stroke-width="2"><circle cx="59" cy="59" r="59" stroke="none"/><circle cx="59" cy="59" r="58" fill="none"/></g><g transform="translate(1023 998.321)"><path d="M232.966,222.507a1.074,1.074,0,1,0-.449,1.338A1.083,1.083,0,0,0,232.966,222.507Z" transform="translate(-2.36 -0.723)" fill="url(#a)"/><path d="M241.458,222.507a1.074,1.074,0,1,0-.442,1.334A1.083,1.083,0,0,0,241.458,222.507Z" transform="translate(-3.546 -0.723)" fill="url(#a)"/><path d="M237.212,222.5a1.074,1.074,0,1,0-.405,1.31A1.085,1.085,0,0,0,237.212,222.5Z" transform="translate(-2.953 -0.721)" fill="url(#a)"/><path d="M282.956,216.679H229.932a4.866,4.866,0,0,0-4.86,4.86v18.847a1.074,1.074,0,0,0,2.148,0V227.137h31.955v13.978a1.075,1.075,0,0,0,1.733.849l13.57-10.516a1.074,1.074,0,0,0,.189-1.511,18.5,18.5,0,0,0-2.71-2.8h13.711v41.7a2.715,2.715,0,0,1-2.712,2.712H251.87v-4.736a18.277,18.277,0,0,0,22.513-21.131,1.074,1.074,0,1,0-2.11.4,16.271,16.271,0,0,1,.286,3.043,16.085,16.085,0,0,1-5.83,12.4l-8.807-12.184L269.8,240.1a16.038,16.038,0,0,1,1.564,2.916,1.075,1.075,0,1,0,1.988-.816,18.272,18.272,0,0,0-2.488-4.289,1.075,1.075,0,0,0-1.507-.188l-11.837,9.2V231.936a1.074,1.074,0,0,0-1.074-1.075,18.263,18.263,0,0,0-11.676,32.307v8.376h-2.709V264.81a1.075,1.075,0,0,0-1.075-1.075h-4.952a1.074,1.074,0,0,0-1.075,1.075v6.735h-2.782V243.968a1.074,1.074,0,0,0-1.075-1.075h-4.953a1.074,1.074,0,0,0-1.075,1.075v39.409a1.074,1.074,0,0,0,1.075,1.074H231.1a1.074,1.074,0,0,0,1.075-1.074v-9.683h2.782v9.683a1.074,1.074,0,0,0,1.075,1.074h4.952a1.074,1.074,0,0,0,1.075-1.074v-9.683h2.709v9.683a1.074,1.074,0,0,0,1.075,1.074H250.8a1.074,1.074,0,0,0,1.075-1.074v-9.683h31.085a4.866,4.866,0,0,0,4.86-4.86V221.539A4.867,4.867,0,0,0,282.956,216.679ZM227.221,282.3v-37.26h2.8V282.3Zm9.884,0V265.884h2.8V282.3Zm3.225-33.178a16.136,16.136,0,0,1,15.04-16.079v16.079a1.071,1.071,0,0,0,.206.628v0l9.415,13.027a16.115,16.115,0,0,1-13.119,1.8v-8.364a1.074,1.074,0,0,0-1.075-1.075h-4.953a1.074,1.074,0,0,0-1.075,1.075v4.019A16.012,16.012,0,0,1,240.33,249.124Zm6.587,33.178V257.289h2.8V282.3Zm14.408-43.379V225.094a16.018,16.018,0,0,1,10.957,5.338Zm7.423-13.935a18.262,18.262,0,0,0-8.5-2.077,1.074,1.074,0,0,0-1.075,1.075v1H227.22v-3.448a2.715,2.715,0,0,1,2.712-2.712h53.024a2.715,2.715,0,0,1,2.712,2.712v3.448Z" transform="translate(-1.546)" fill="url(#a)"/><path d="M220.028,255.639h-4.953A1.074,1.074,0,0,0,214,256.714v32.1a1.074,1.074,0,0,0,1.075,1.074h4.953a1.074,1.074,0,0,0,1.075-1.074v-8.683a1.075,1.075,0,1,0-2.149,0v7.608h-2.8V257.787h2.8v18.765a1.075,1.075,0,1,0,2.149,0V256.714A1.074,1.074,0,0,0,220.028,255.639Z" transform="translate(0 -5.441)" fill="url(#a)"/><path d="M290.41,274.41H279.022a1.075,1.075,0,1,0,0,2.149H290.41a1.075,1.075,0,0,0,0-2.149Z" transform="translate(-8.93 -8.062)" fill="url(#a)"/><path d="M290.968,269.125h-7.951a1.075,1.075,0,0,0,0,2.149h7.951a1.075,1.075,0,0,0,0-2.149Z" transform="translate(-9.488 -7.324)" fill="url(#a)"/></g></g></svg>