<svg xmlns="http://www.w3.org/2000/svg" xmlns:xlink="http://www.w3.org/1999/xlink" width="118" height="118" viewBox="0 0 118 118"><defs><linearGradient id="a" x1="0.5" x2="0.5" y2="1" gradientUnits="objectBoundingBox"><stop offset="0" stop-color="#4761ac"/><stop offset="1" stop-color="#54c2ef"/></linearGradient></defs><g transform="translate(-929 -1190)"><g transform="translate(929 1190)" fill="#fff" stroke="#2135d5" stroke-width="2"><circle cx="59" cy="59" r="59" stroke="none"/><circle cx="59" cy="59" r="58" fill="none"/></g><g transform="translate(747 1000.862)"><path d="M224.432,265.967a4.242,4.242,0,1,0,4.242,4.242A4.246,4.246,0,0,0,224.432,265.967Zm0,6.227a1.985,1.985,0,1,1,1.985-1.985A1.987,1.987,0,0,1,224.432,272.194Z" transform="translate(-4.703 -10.349)" fill="url(#a)"/><path d="M288.55,265.967a4.242,4.242,0,1,0,4.242,4.242A4.247,4.247,0,0,0,288.55,265.967Zm0,6.227a1.985,1.985,0,1,1,1.985-1.985A1.987,1.987,0,0,1,288.55,272.194Z" transform="translate(-22.245 -10.349)" fill="url(#a)"/><path d="M278.769,256.273v-9.721a5.3,5.3,0,0,0-5.29-5.29h-3.007l-1.788-3.567a1.129,1.129,0,0,0-2.018,1.012l1.281,2.554H265.42l-3.739-7.454a2.081,2.081,0,0,0-1.87-1.154H235.995a2.1,2.1,0,0,0-1.677.842l-5.787,7.767h-2.815l7.343-9.855a2.522,2.522,0,0,1,2.014-1.012h25.872a2.5,2.5,0,0,1,2.246,1.387l1.317,2.626a1.129,1.129,0,0,0,2.018-1.012l-1.318-2.627a4.744,4.744,0,0,0-4.263-2.631H235.073a4.792,4.792,0,0,0-3.825,1.92l-8.347,11.2h-9.289a9.778,9.778,0,0,0-9.766,9.767v5.385a1.972,1.972,0,0,0-.845,1.616V261.1a1.976,1.976,0,0,0,1.973,1.974h6.608a8.766,8.766,0,0,0,8.137,5.543c.155,0,.312,0,.469-.012a8.766,8.766,0,0,0,7.684-5.53h30.292a8.753,8.753,0,0,0,16.285,0h3.381A2.174,2.174,0,0,0,280,260.9v-2.675a2.172,2.172,0,0,0-1.231-1.955Zm-2.257-5.729h-1.584a.168.168,0,0,1-.168-.167v-3.051a.168.168,0,0,1,.168-.167h1.584Zm-.493-5.643h-1.092a2.427,2.427,0,0,0-2.424,2.425v3.051a2.427,2.427,0,0,0,2.424,2.424h1.584v3.256h-2.319a8.749,8.749,0,0,0-10.565-4.532v-8.006h9.852a3.035,3.035,0,0,1,2.541,1.382ZM262.9,241.261h-3.727V234.91h.541Zm-17.427,0V234.91h11.443v6.352Zm-9.39-6.352h7.133v6.352H231.345Zm-8.46,21.147a8.741,8.741,0,0,0-2.415-3.035v-5.546a.1.1,0,0,1,.015-.052l2.3-3.9h15.692v12.537ZM210.242,244.32v3.265a1.673,1.673,0,0,1-1.671,1.671h-2.256A7.538,7.538,0,0,1,210.242,244.32Zm-4.985,16.5v-2.5h5.852a8.752,8.752,0,0,0-.124,2c.009.168.023.333.041.5h-5.768Zm14.812,5.534a6.5,6.5,0,0,1-3.169-12.343,1.129,1.129,0,1,0-.984-2.032,8.744,8.744,0,0,0-4.079,4.083l-.05,0H206.1v-4.543h2.469a3.932,3.932,0,0,0,3.928-3.928V243.6a7.491,7.491,0,0,1,1.112-.083H224.9l-1.625,2.757a2.359,2.359,0,0,0-.328,1.2v4.239a8.816,8.816,0,0,0-1.542-.45,1.128,1.128,0,0,0-.43,2.216,6.5,6.5,0,0,1-.9,12.869Zm8.363-5.534a8.78,8.78,0,0,0-.084-2.5H249.78a1.128,1.128,0,1,0,0-2.257h-4.312V243.519h15.9v9.113a8.82,8.82,0,0,0-2.95,3.424h-3.83a1.128,1.128,0,0,0,0,2.257h3.1a8.752,8.752,0,0,0-.139,1.547,8.863,8.863,0,0,0,.053.957H228.432Zm37.873,5.543a6.5,6.5,0,1,1,6.5-6.5A6.506,6.506,0,0,1,266.3,266.358Zm11.438-5.543h-2.735a8.643,8.643,0,0,0-.086-2.5h2.821Z" fill="url(#a)"/><path d="M252.312,253.085H251.5a1.128,1.128,0,1,0,0,2.257h.811a1.128,1.128,0,0,0,0-2.257Z" transform="translate(-12.96 -6.825)" fill="url(#a)"/></g></g></svg>