<svg xmlns="http://www.w3.org/2000/svg" xmlns:xlink="http://www.w3.org/1999/xlink" width="118" height="118" viewBox="0 0 118 118"><defs><linearGradient id="a" x1="0.414" x2="0.417" y2="1" gradientUnits="objectBoundingBox"><stop offset="0" stop-color="#4761ac"/><stop offset="1" stop-color="#54c2ef"/></linearGradient></defs><g transform="translate(-614 -1190)"><g transform="translate(614 1190)" fill="#fff" stroke="#2135d5" stroke-width="2"><circle cx="59" cy="59" r="59" stroke="none"/><circle cx="59" cy="59" r="58" fill="none"/></g><g transform="translate(604.997 1215)"><path d="M40,8.989H42.25V47.195H65.9L52.576,65.639A1.124,1.124,0,1,0,54.4,66.956L66.971,49.547V66.3a1.124,1.124,0,0,0,2.247,0V49.547L81.792,66.956a1.124,1.124,0,1,0,1.823-1.317h0L70.293,47.195H93.94V8.989h2.247V0H40ZM91.692,44.947H44.5V8.989H91.692ZM42.25,2.247H93.94V6.742H42.25Z" fill="url(#a)"/><g transform="translate(46.745 11.237)"><path d="M272.334,230.032a1.124,1.124,0,0,0,0,1.589l3.371,3.371a1.124,1.124,0,0,0,1.589,0L286.283,226a1.124,1.124,0,0,0-1.589-1.589l-8.2,8.2-2.577-2.577a1.124,1.124,0,0,0-1.589,0Z" transform="translate(-246.16 -203.858)" fill="url(#a)"/><path d="M98.306,102.474a10.124,10.124,0,0,0,10.047-8.989h1.19a1.124,1.124,0,1,0,0-2.247h-1.19a10.127,10.127,0,0,0-8.923-8.923v-1.19a1.124,1.124,0,0,0-2.247,0v1.19a10.113,10.113,0,0,0,1.124,20.16Zm7.776-11.237H99.43V84.585A7.866,7.866,0,0,1,106.082,91.237Zm-8.9-6.652v7.776a1.124,1.124,0,0,0,1.124,1.124h7.776a7.866,7.866,0,1,1-8.9-8.9Z" transform="translate(-88.193 -80)" fill="url(#a)"/><path d="M88,288H90.25v2.247H88Z" transform="translate(-88.003 -258.784)" fill="url(#a)"/><path d="M120,288h16.855v2.247H120Z" transform="translate(-115.508 -258.784)" fill="url(#a)"/><path d="M88,256H90.25v2.247H88Z" transform="translate(-88.003 -231.279)" fill="url(#a)"/><path d="M120,256h16.855v2.247H120Z" transform="translate(-115.508 -231.279)" fill="url(#a)"/><path d="M264,128h2.247v2.247H264Z" transform="translate(-239.282 -121.258)" fill="url(#a)"/><path d="M296,128h13.484v2.247H296Z" transform="translate(-266.787 -121.258)" fill="url(#a)"/><path d="M264,96h2.247v2.247H264Z" transform="translate(-239.282 -93.753)" fill="url(#a)"/><path d="M296,96h13.484v2.247H296Z" transform="translate(-266.787 -93.753)" fill="url(#a)"/><path d="M264,192h2.247v2.247H264Z" transform="translate(-239.282 -176.268)" fill="url(#a)"/><path d="M296,192h13.484v2.247H296Z" transform="translate(-266.787 -176.268)" fill="url(#a)"/><path d="M264,160h2.247v2.247H264Z" transform="translate(-239.282 -148.763)" fill="url(#a)"/><path d="M296,160h13.484v2.247H296Z" transform="translate(-266.787 -148.763)" fill="url(#a)"/></g></g></g></svg>