<?xml version="1.0" encoding="utf-8"?>
<!-- Generator: Adobe Illustrator 21.0.0, SVG Export Plug-In . SVG Version: 6.00 Build 0)  -->
<svg version="1.1" id="Layer_1" xmlns="http://www.w3.org/2000/svg" xmlns:xlink="http://www.w3.org/1999/xlink" x="0px" y="0px"
	 viewBox="0 0 512 512" style="enable-background:new 0 0 512 512;" xml:space="preserve">
<style type="text/css">
	.st0{fill:#FFFFFF;}
	.st1{fill:#2135D5;}
</style>
<g>
	<g>
		<g>
			<path class="st0" d="M90,442h372V30c0-11-9-20-20-20H30c-11,0-20,9-20,20v432c0,22.1,17.9,40,40,40s40-17.9,40-40V442z"/>
			<path class="st0" d="M462,442H90v20c0,22.1-17.9,40-40,40h412c22.1,0,40-17.9,40-40v-20H462z"/>
		</g>
		<g>
			<path class="st1" d="M108,10l-98,98v100L208,10H108z"/>
			<path class="st1" d="M308,10L10,308l0,100L408,10H308z"/>
			<path class="st1" d="M462,56L24.9,493.1c6.9,5.6,15.6,8.9,25.1,8.9c22.1,0,40-17.9,40-40v-20h86l286-286V56z"/>
			<path class="st1" d="M462,256L276,442h100l86-86V256z"/>
		</g>
	</g>
	<g>
		<path d="M502,432h-30V30c0-16.5-13.5-30-30-30H30C13.5,0,0,13.5,0,30v432c0,27.6,22.4,50,50,50h412c27.6,0,50-22.4,50-50v-20
			C512,436.5,507.5,432,502,432L502,432z M344.3,373.7c-3.9-3.9-10.2-3.9-14.1,0L271.9,432h-71.7L452,180.1v71.7l-58.3,58.3
			c-3.9,3.9-3.9,10.2,0,14.1c2,2,4.5,2.9,7.1,2.9s5.1-1,7.1-2.9l44.1-44.1v71.7L371.9,432h-71.7l44.1-44.1
			C348.2,384,348.2,377.7,344.3,373.7L344.3,373.7z M452,151.9L171.9,432h-71.7L452,80.1L452,151.9z M452,380.1V432h-51.9L452,380.1
			z M452,30v21.9L25.1,478.7C21.9,474,20,468.2,20,462v-49.9L412.1,20H442C447.5,20,452,24.5,452,30L452,30z M183.9,20l-50.1,50.1
			c-3.9,3.9-3.9,10.2,0,14.1c2,2,4.5,2.9,7.1,2.9s5.1-1,7.1-2.9L212.1,20h71.7L20,283.9v-71.7l64.2-64.2c3.9-3.9,3.9-10.2,0-14.1
			c-3.9-3.9-10.2-3.9-14.1,0L20,183.9v-71.7L112.1,20H183.9z M20,312.1L312.1,20h71.7L20,383.9L20,312.1z M30,20h53.9L20,83.9V30
			C20,24.5,24.5,20,30,20z M50,492c-3,0-5.9-0.4-8.6-1.3L80,452.1v9.9C80,478.5,66.5,492,50,492L50,492z M492,462
			c0,16.5-13.5,30-30,30H90c6.3-8.4,10-18.8,10-30v-10h392L492,462L492,462z"/>
		<path d="M109,119c5.5,0,10-4.5,10-10s-4.5-10-10-10h0c-5.5,0-10,4.5-10,10S103.5,119,109,119z"/>
		<path d="M369,359c5.5,0,10-4.5,10-10s-4.5-10-10-10h0c-5.5,0-10,4.5-10,10S363.5,359,369,359z"/>
	</g>
</g>
</svg>
