<svg xmlns="http://www.w3.org/2000/svg" width="122" height="122" viewBox="0 0 122 122"><g transform="translate(-0.001)"><path d="M122,61a61.136,61.136,0,0,1-1.232,12.252,60.358,60.358,0,0,1-2.841,9.71v0a61.117,61.117,0,0,1-15.287,22.61q-1.74,1.628-3.605,3.117a61,61,0,0,1-76.068,0q-1.864-1.49-3.605-3.117a61.6,61.6,0,0,1-4.668-4.868A60.751,60.751,0,0,1,0,61q0-2.831.254-5.6A60.73,60.73,0,0,1,14.693,21.293a61.338,61.338,0,0,1,9.934-9.264,61.05,61.05,0,0,1,90.033,19.938A60.654,60.654,0,0,1,122,61Z" fill="#ff525d"/><g transform="translate(0.254 36.354)"><path d="M30.54,168.439a3.173,3.173,0,0,1-3.174,3.174H1.061a60.614,60.614,0,0,1,4.93-19.047H22.428a3.174,3.174,0,1,1,0,6.349H12.2a3.174,3.174,0,0,0,0,6.349H27.366a3.175,3.175,0,0,1,3.174,3.175Z" transform="translate(-1.061 -152.567)" fill="#ffdc8d"/><path d="M38.955,263.493h0a3.175,3.175,0,0,0-3.175-3.175H9.028a3.174,3.174,0,0,0-3.174,3.175h0a3.175,3.175,0,0,0,3.174,3.175h8.653a3.174,3.174,0,0,1,3.174,3.174h0a3.174,3.174,0,0,1-3.174,3.174H16.8a3.174,3.174,0,0,0-3.174,3.175h0a3.175,3.175,0,0,0,3.174,3.175H42.44a3.175,3.175,0,0,0,3.175-3.175h0a3.175,3.175,0,0,1,3.175-3.175h.882a3.175,3.175,0,0,0,3.175-3.174h0a3.174,3.174,0,0,0-3.175-3.174H42.13A3.175,3.175,0,0,1,38.955,263.493Z" transform="translate(-4.712 -234.643)" fill="#ffdc8d"/></g><path d="M154.268,5.929V100.71a61,61,0,0,1-92.615,0V5.929A5.925,5.925,0,0,1,67.579,0h80.764A5.927,5.927,0,0,1,154.268,5.929Z" transform="translate(-46.961 -0.002)" fill="#5c5e70"/><path d="M164.527,74.169v85.21a62.105,62.105,0,0,1-4.8,4.046,61.011,61.011,0,0,1-73.683,0,62.054,62.054,0,0,1-4.8-4.046V74.169a3.532,3.532,0,0,1,3.533-3.533h76.212a3.449,3.449,0,0,1,.625.057A3.531,3.531,0,0,1,164.527,74.169Z" transform="translate(-61.888 -53.805)" fill="#ffd15c"/><path d="M213.183,28.844h-31.37A2.614,2.614,0,0,1,179.2,26.23h0a2.614,2.614,0,0,1,2.614-2.614h31.37A2.614,2.614,0,0,1,215.8,26.23h0A2.614,2.614,0,0,1,213.183,28.844Z" transform="translate(-136.498 -17.989)" fill="#494b5b"/><path d="M82.953,54.718V156.379a61.081,61.081,0,0,1-59.986-9.237q-1.864-1.49-3.605-3.117a61.593,61.593,0,0,1-4.668-4.868A60.751,60.751,0,0,1,0,99.45V54.718a4.24,4.24,0,0,1,4.24-4.24H78.713a4.239,4.239,0,0,1,4.235,4.068C82.953,54.6,82.953,54.661,82.953,54.718Z" transform="translate(0 -38.45)" fill="#34abe0"/><circle cx="16.878" cy="16.878" r="16.878" transform="translate(12.208 25.124)" fill="#ffd15c"/><path d="M94.181,205.151a16.871,16.871,0,0,1-25.389,0,17.214,17.214,0,0,1,12.6-5.56.808.808,0,0,0,.1,0,.749.749,0,0,0,.092,0A17.2,17.2,0,0,1,94.181,205.151Z" transform="translate(-52.399 -152.032)" fill="#ff525d"/><path d="M95.618,139.411a8.277,8.277,0,0,1,.126,16.552h-.257a8.277,8.277,0,0,1,.131-16.552Z" transform="translate(-66.527 -106.192)" fill="#f2f2f2"/><g transform="translate(10.18 31.513)"><rect width="21.029" height="4.058" transform="translate(43.075)" fill="#5c5e70"/><rect width="21.029" height="4.058" transform="translate(43.075 9.643)" fill="#5c5e70"/><rect width="21.029" height="4.058" transform="translate(43.075 19.286)" fill="#5c5e70"/><rect width="64.102" height="4.058" transform="translate(0 36.891)" fill="#5c5e70"/><rect width="54.143" height="4.058" transform="translate(0 45.847)" fill="#5c5e70"/></g></g></svg>