<svg xmlns="http://www.w3.org/2000/svg" width="24" height="24" viewBox="0 0 24 24">
  <g id="create-client" transform="translate(-32 -32)">
    <path id="Path_385" data-name="Path 385" d="M248.143,72a2.581,2.581,0,0,0-.143.857v.391A10,10,0,0,0,248.663,72Z" transform="translate(-204.428 -37.857)" fill="#a3a3a3"/>
    <path id="Path_386" data-name="Path 386" d="M249.375,43.1a1.711,1.711,0,0,0-.363.691h1.054Z" transform="translate(-205.386 -10.506)" fill="#a3a3a3"/>
    <path id="Path_387" data-name="Path 387" d="M272,245.7a2.143,2.143,0,0,0,4.286,0v-1.035a4.087,4.087,0,0,1-4.286,0Z" transform="translate(-227.143 -201.275)" fill="#a3a3a3"/>
    <path id="Path_388" data-name="Path 388" d="M216.857,129.714h.031c0-.031,0-.063-.005-.094-.011-.187-.026-1.192-.026-1.62a.857.857,0,1,0,0,1.714Z" transform="translate(-174.143 -90.857)" fill="#a3a3a3"/>
    <path id="Path_389" data-name="Path 389" d="M392.3,128.857a.858.858,0,0,0-.857-.857c.016,0-.019,1.5-.026,1.615,0,.033,0,.066-.006.1h.031a.858.858,0,0,0,.857-.857Z" transform="translate(-340.162 -90.857)" fill="#a3a3a3"/>
    <path id="Path_390" data-name="Path 390" d="M360.857,48.254a.952.952,0,0,0-.857-.947v.807a16.916,16.916,0,0,0,.857,1.7Z" transform="translate(-310.428 -14.487)" fill="#a3a3a3"/>
    <path id="Path_391" data-name="Path 391" d="M314.325,33.286v-.671A2.479,2.479,0,0,0,312.684,32h-.039l1.029,1.286Z" transform="translate(-265.61 0)" fill="#a3a3a3"/>
    <path id="Path_392" data-name="Path 392" d="M271.458,33.286,270.43,32h-.651a1.706,1.706,0,0,0-.579.1l1.185,1.185Z" transform="translate(-224.493 0)" fill="#a3a3a3"/>
    <path id="Path_393" data-name="Path 393" d="M248,77.07a5.223,5.223,0,0,0,.712,2.478,3.184,3.184,0,0,0,5.293.033,5.453,5.453,0,0,0,.752-2.7q.064-.892.041-1.787a1.349,1.349,0,0,0-.059-.429,1.48,1.48,0,0,0-.194-.332,24.653,24.653,0,0,1-1.314-2.367h-3.69s-.039.093-.172.393q-.157.355-.342.7a10.006,10.006,0,0,1-.84,1.3,1.139,1.139,0,0,0-.214.361,1.053,1.053,0,0,0-.03.262q-.024.928.038,1.856.008.115.017.23Zm5.3-2.657a.643.643,0,1,1-.643.643h0A.644.644,0,0,1,253.294,74.413Zm-2.786,3.129h.8a3.191,3.191,0,0,0,1.558-.37l.432.74a4.008,4.008,0,0,1-1.99.487h-.8Zm-1.071-3.129a.643.643,0,1,1-.643.643A.643.643,0,0,1,249.437,74.413Z" transform="translate(-204.366 -37.828)" fill="#a3a3a3"/>
    <path id="Path_394" data-name="Path 394" d="M99.609,266.222,99,259.9q0-.02,0-.041v-3.429a.429.429,0,0,0-.429-.429H96.429a.429.429,0,0,0-.429.429v.368a.43.43,0,0,0,0,.061l.42,2.94a.42.42,0,0,1,0,.06V266.4a1.6,1.6,0,1,0,3.181-.176Z" transform="translate(-60.571 -212)" fill="#a3a3a3"/>
    <path id="Path_395" data-name="Path 395" d="M201.286,230.214v-5.571a.643.643,0,1,0-1.286,0v5.571a.643.643,0,1,0,1.286,0Z" transform="translate(-159 -181.714)" fill="#a3a3a3"/>
    <path id="Path_396" data-name="Path 396" d="M176.33,414.344l.151-.369-.2-.09Z" transform="translate(-136.556 -361.427)" fill="#a3a3a3"/>
    <path id="Path_397" data-name="Path 397" d="M168.857,313.5V312H168v.837l.349,3.633.615.284.771-1.89A1.5,1.5,0,0,1,168.857,313.5Z" transform="translate(-128.714 -265)" fill="#a3a3a3"/>
    <path id="Path_398" data-name="Path 398" d="M424,400h3v4.286h-3Z" transform="translate(-371 -348.286)" fill="#a3a3a3"/>
    <path id="Path_399" data-name="Path 399" d="M227.858,274.687l-3.776-.946a3,3,0,0,1-5.906-.016l-.9.194v3.357a1.5,1.5,0,0,1-1.286,1.484c0,.005,0,.01,0,.015v6h10.286v-6.857h.857v1.714h3V277.6a3,3,0,0,0-2.272-2.91Z" transform="translate(-174.131 -228.776)" fill="#a3a3a3"/>
    <path id="Path_400" data-name="Path 400" d="M72,280v.857h.608L72.485,280Z" transform="translate(-37.857 -234.714)" fill="#a3a3a3"/>
    <path id="Path_401" data-name="Path 401" d="M32.643,224a.644.644,0,0,0-.643.643v5.571a.643.643,0,1,0,1.286,0v-5.571A.644.644,0,0,0,32.643,224Z" transform="translate(0 -181.714)" fill="#a3a3a3"/>
    <path id="Path_402" data-name="Path 402" d="M168,280h.857v.857H168Z" transform="translate(-128.714 -234.714)" fill="#a3a3a3"/>
  </g>
</svg>
