<svg id="dashboard" xmlns="http://www.w3.org/2000/svg" width="24" height="24" viewBox="0 0 24 24">
  <path id="Path_3" data-name="Path 3" d="M9.25,0H1.75A1.752,1.752,0,0,0,0,1.75v4.5A1.752,1.752,0,0,0,1.75,8h7.5A1.752,1.752,0,0,0,11,6.25V1.75A1.752,1.752,0,0,0,9.25,0Z" fill="#a3a3a3"/>
  <path id="Path_4" data-name="Path 4" d="M9.25,213.332H1.75A1.752,1.752,0,0,0,0,215.082v10.5a1.752,1.752,0,0,0,1.75,1.75h7.5a1.752,1.752,0,0,0,1.75-1.75v-10.5A1.752,1.752,0,0,0,9.25,213.332Z" transform="translate(0 -203.332)" fill="#a3a3a3"/>
  <path id="Path_5" data-name="Path 5" d="M286.582,341.332h-7.5a1.752,1.752,0,0,0-1.75,1.75v4.5a1.752,1.752,0,0,0,1.75,1.75h7.5a1.752,1.752,0,0,0,1.75-1.75v-4.5A1.752,1.752,0,0,0,286.582,341.332Z" transform="translate(-264.332 -325.332)" fill="#a3a3a3"/>
  <path id="Path_6" data-name="Path 6" d="M286.582,0h-7.5a1.752,1.752,0,0,0-1.75,1.75v10.5a1.752,1.752,0,0,0,1.75,1.75h7.5a1.752,1.752,0,0,0,1.75-1.75V1.75A1.752,1.752,0,0,0,286.582,0Z" transform="translate(-264.332)" fill="#a3a3a3"/>
</svg>
