<?xml version="1.0" encoding="utf-8"?>
<!-- Generator: Adobe Illustrator 21.0.0, SVG Export Plug-In . SVG Version: 6.00 Build 0)  -->
<svg version="1.1" id="Layer_1" xmlns="http://www.w3.org/2000/svg" xmlns:xlink="http://www.w3.org/1999/xlink" x="0px" y="0px"
	 viewBox="0 0 203 65" style="enable-background:new 0 0 203 65;" xml:space="preserve">
<style type="text/css">
	.st0{enable-background:new    ;}
	.st1{fill:#FFFFFF;}
	.st2{fill:none;stroke:#FFFFFF;stroke-linecap:round;}
</style>
<title>Logo</title>
<desc>Created with Sketch.</desc>
<g id="Logo-white" transform="translate(-57 -27.319)">
	<g class="st0">
		<path class="st1" d="M88,49.2h4.1v3.4L79.8,71.1l-7-10.4v15.1h-5.3V49.2h4.1l8.2,12.3L88,49.2z M86.8,75.8v-14l5.4-3.7v17.7H86.8z
			"/>
		<path class="st1" d="M100.2,49.2l5.5,11.2l-4,3.4l-7.9-14.6H100.2z M112.1,49.2h6.5L108.9,67v8.8h-5.5V67v-0.1l2.8-5.7L112.1,49.2
			z"/>
		<path class="st1" d="M199.9,61.4c0,0.4,0,0.8,0,1.1c0,1.9-0.3,3.6-1,5.3c-0.7,1.7-1.6,3.1-2.8,4.3s-2.6,2.2-4.2,2.9
			s-3.4,1.1-5.2,1.1s-3.6-0.4-5.3-1.1s-3.1-1.7-4.3-2.9c-1.2-1.2-2.2-2.7-2.9-4.3s-1.1-3.4-1.1-5.3c0-1.9,0.4-3.6,1.1-5.3
			s1.7-3.1,2.9-4.3s2.7-2.2,4.3-2.9s3.4-1.1,5.3-1.1c2.5,0,4.7,0.6,6.7,1.8s3.6,2.7,4.8,4.7l-4.4,2.9c-0.7-1.4-1.7-2.5-2.9-3.3
			s-2.7-1.2-4.2-1.2c-1.1,0-2.2,0.2-3.2,0.7s-1.8,1.1-2.6,1.9c-0.7,0.8-1.3,1.7-1.7,2.8s-0.6,2.2-0.6,3.4s0.2,2.4,0.6,3.4
			c0.4,1.1,1,2,1.7,2.8c0.7,0.8,1.6,1.4,2.6,1.9s2.1,0.7,3.2,0.7c0.9,0,1.8-0.2,2.6-0.5c0.8-0.3,1.5-0.7,2.2-1.3
			c0.6-0.6,1.2-1.2,1.7-2c0.5-0.7,0.8-1.6,1-2.5H187l-2.4-4.9h15.3C199.9,60.6,199.9,61,199.9,61.4z"/>
		<path class="st1" d="M204.8,49.2l5.5,11.2l-4.1,3.4l-7.9-14.6H204.8z M216.7,49.2h6.5L213.5,67v8.8H208V67v-0.1l2.8-5.7
			L216.7,49.2z"/>
		<path class="st1" d="M245.4,49.2h4.1v3.4l-12.3,18.5l-7-10.4v15.1h-5.4V49.2h4.1l8.2,12.3L245.4,49.2z M244.1,75.8v-14l5.4-3.7
			v17.7H244.1z"/>
	</g>
	<g id="Group_1" transform="translate(204.173 76.683) rotate(180)">
		<path id="Path_1" class="st1" d="M58.4-1.5c-3.8,0-6.8,3-6.8,6.8s3,6.8,6.8,6.8c3.8,0,6.8-3,6.8-6.8C65.2,1.5,62.2-1.5,58.4-1.5
			L58.4-1.5z M58.4,9.2c-2.2,0-3.9-1.7-3.9-3.9s1.7-3.9,3.9-3.9c2.2,0,3.9,1.7,3.9,3.9l0,0C62.3,7.4,60.6,9.2,58.4,9.2z"/>
		<path id="Path_2" class="st1" d="M78.5,35.7c-0.9-4-1.3-8.1-1.4-12.2L77,18.1l-3.9,0.4L71.5,4.4C71-2.8,64.7-8.3,57.5-7.8
			C51-7.4,45.8-2.2,45.4,4.3l-1.6,14.2l-3.9-0.4l-0.1,5.4c-0.1,4.1-0.5,8.2-1.4,12.2c-0.6,2.6,1.1,5.2,3.8,5.8
			c0.2,0,0.3,0.1,0.5,0.1c1.4,0.1,2.7-0.3,3.8-1.2c1-0.9,1.6-2.2,1.7-3.6c0.1-4.1,0.5-8.2,1.4-12.2l1.1-5.3l-3.9-0.4l0.8-6.6
			c3.9,6.1,11.9,7.9,18,4c1.6-1,3-2.4,4-4l0.8,6.6l-3.9,0.4l1.1,5.3c0.9,4,1.3,8.1,1.4,12.2c0,1.4,0.6,2.7,1.7,3.6
			c1,0.9,2.4,1.3,3.8,1.2c2.7-0.3,4.6-2.7,4.3-5.4C78.6,36,78.5,35.8,78.5,35.7z M46.6,24c-0.9,4.2-1.4,8.5-1.5,12.8
			c0,0.6-0.3,1.1-0.7,1.5c-0.9,0.7-2.1,0.6-2.9-0.2L41.4,38c-0.3-0.5-0.5-1-0.3-1.6c0.9-4.2,1.4-8.5,1.5-12.8v-2.2l4.4,0.5L46.6,24z
			 M58.4,15.4c-5.6,0-10.2-4.6-10.2-10.2S52.8-4.9,58.4-4.9S68.6-0.3,68.6,5.3S64,15.4,58.4,15.4L58.4,15.4z M75.3,37.8
			c-0.7,0.9-1.9,1.1-2.8,0.4c0,0-0.1,0-0.1-0.1c-0.4-0.4-0.7-0.9-0.7-1.5c-0.1-4.3-0.6-8.6-1.5-12.8l-0.5-2.1l4.4-0.5v2.2
			c0.1,4.3,0.6,8.6,1.5,12.8C75.8,36.8,75.7,37.4,75.3,37.8L75.3,37.8z"/>
	</g>
	<line id="Line_2" class="st2" x1="123" y1="84.3" x2="130" y2="84.3"/>
	<line id="Line_3" class="st2" x1="162" y1="84.3" x2="169" y2="84.3"/>
</g>
</svg>
