<?xml version="1.0" encoding="utf-8"?>
<!-- Generator: Adobe Illustrator 21.0.0, SVG Export Plug-In . SVG Version: 6.00 Build 0)  -->
<svg version="1.1" id="Logo" xmlns="http://www.w3.org/2000/svg" xmlns:xlink="http://www.w3.org/1999/xlink" x="0px" y="0px"
	 viewBox="0 0 282 76.4" style="enable-background:new 0 0 282 76.4;" xml:space="preserve">
<style type="text/css">
	.st0{enable-background:new    ;}
	.st1{fill:none;stroke:#FFFFFF;stroke-linecap:round;}
</style>
<g class="st0">
	<path d="M33.4,21.4h6.3v5.2L20.9,54.9l-10.6-16V62H2.1V21.4h6.3l12.5,18.9L33.4,21.4z M31.5,62V40.7l8.2-5.6v27H31.5z"/>
	<path d="M52.1,21.4l8.5,17.1l-6.3,5.2l-12-22.3H52.1z M70.2,21.4h9.9L65.4,48.6V62h-8.5V48.6l-0.1-0.1l4.3-8.8L70.2,21.4z"/>
	<path d="M204.2,40c0,0.6,0.1,1.2,0.1,1.7c0,2.9-0.5,5.6-1.5,8.1c-1,2.5-2.4,4.7-4.2,6.6c-1.8,1.9-3.9,3.4-6.4,4.4
		c-2.5,1.1-5.1,1.6-8,1.6s-5.6-0.5-8.1-1.6c-2.5-1.1-4.7-2.6-6.6-4.4c-1.9-1.9-3.4-4.1-4.4-6.6c-1.1-2.5-1.6-5.2-1.6-8.1
		c0-2.9,0.5-5.6,1.6-8.1c1.1-2.5,2.6-4.7,4.4-6.6c1.9-1.9,4.1-3.4,6.6-4.4c2.5-1.1,5.2-1.6,8.1-1.6c3.8,0,7.2,0.9,10.2,2.7
		s5.5,4.2,7.4,7.1l-6.8,4.3c-1-2.1-2.5-3.8-4.4-5s-4.1-1.9-6.4-1.9c-1.7,0-3.4,0.4-4.9,1.1c-1.5,0.7-2.8,1.7-3.9,2.9
		c-1.1,1.2-2,2.6-2.7,4.3c-0.7,1.6-1,3.4-1,5.2c0,1.9,0.3,3.6,1,5.2c0.7,1.6,1.5,3.1,2.7,4.3c1.1,1.2,2.4,2.2,3.9,2.9
		c1.5,0.7,3.1,1.1,4.9,1.1c1.4,0,2.7-0.2,3.9-0.7c1.2-0.5,2.3-1.1,3.3-2c1-0.8,1.8-1.8,2.5-3c0.7-1.1,1.2-2.4,1.6-3.8h-11l-3.7-7.5
		H204C204.1,38.8,204.2,39.4,204.2,40z"/>
	<path d="M211.7,21.4l8.5,17.1l-6.3,5.2l-12-22.3H211.7z M229.8,21.4h9.9L225,48.6V62h-8.5V48.6l-0.1-0.1l4.3-8.8L229.8,21.4z"/>
	<path d="M273.6,21.4h6.3v5.2l-18.7,28.2l-10.6-16V62h-8.2V21.4h6.3l12.5,18.9L273.6,21.4z M271.7,62V40.7l8.2-5.6v27H271.7z"/>
</g>
<g id="Group_1" transform="translate(153.442 76.193) rotate(180)">
	<path id="Path_1" d="M31.1,9.7c-5.8,0-10.5,4.7-10.5,10.5s4.7,10.5,10.5,10.5S41.6,26,41.6,20.2C41.6,14.4,36.9,9.7,31.1,9.7z
		 M31.1,26.2c-3.3,0-6-2.7-6-6s2.7-6,6-6s6,2.7,6,6l0,0C37.2,23.5,34.5,26.2,31.1,26.2z"/>
	<path id="Path_2" d="M62.1,67.1c-1.3-6.2-2-12.5-2.2-18.8l-0.2-8.3l-6,0.7l-2.5-21.8C50.5,7.7,40.9-0.7,29.8,0
		C19.7,0.7,11.7,8.7,11,18.8L8.5,40.6l-6-0.7l-0.2,8.3c-0.1,6.3-0.8,12.6-2.2,18.8C-0.7,71.1,1.9,75.2,6,76c0.2,0.1,0.5,0.1,0.7,0.1
		c2.1,0.2,4.2-0.4,5.8-1.8c1.6-1.4,2.5-3.4,2.6-5.5c0.1-6.3,0.8-12.6,2.2-18.8l1.7-8.1l-6-0.7L14.1,31c6,9.4,18.4,12.2,27.8,6.2
		c2.5-1.6,4.6-3.7,6.2-6.2l1.2,10.2l-6,0.7l1.7,8.1c1.3,6.2,2,12.5,2.2,18.8c0,2.1,1,4.1,2.6,5.5c1.6,1.4,3.7,2,5.8,1.8
		c4.1-0.5,7.1-4.2,6.6-8.4C62.2,67.5,62.2,67.3,62.1,67.1L62.1,67.1z M12.9,49c-1.4,6.5-2.1,13.1-2.3,19.7c0,0.9-0.4,1.7-1.1,2.3
		c-1.3,1.1-3.3,0.9-4.4-0.4c0,0-0.1-0.1-0.1-0.1c-0.5-0.7-0.7-1.6-0.5-2.4c1.4-6.5,2.1-13.1,2.3-19.7l0.1-3.4l6.7,0.8L12.9,49z
		 M31.1,35.9c-8.7,0-15.7-7-15.7-15.7c0-8.7,7-15.7,15.7-15.7s15.7,7,15.7,15.7C46.8,28.8,39.8,35.9,31.1,35.9L31.1,35.9z
		 M57.2,70.4c-1,1.4-3,1.7-4.4,0.6c-0.1,0-0.1-0.1-0.1-0.1c-0.7-0.6-1-1.4-1-2.3c-0.1-6.6-0.9-13.2-2.3-19.7l-0.7-3.3l6.7-0.8
		l0.1,3.4c0.1,6.6,0.9,13.2,2.3,19.7C57.9,68.9,57.7,69.7,57.2,70.4L57.2,70.4z"/>
</g>
<line id="Line_2" class="st1" x1="87.2" y1="75.9" x2="98" y2="75.9"/>
<line id="Line_3" class="st1" x1="147.4" y1="75.9" x2="158.2" y2="75.9"/>
</svg>
