<svg xmlns="http://www.w3.org/2000/svg" width="25.103" height="30" viewBox="0 0 25.103 30">
  <g id="manage-consultation" transform="translate(-36.873)">
    <path id="Path_415" data-name="Path 415" d="M222.563,13.312a2.337,2.337,0,0,0,1.673.684l3.27-.016-5.658-5.592.016,3.258A2.345,2.345,0,0,0,222.563,13.312Z" transform="translate(-172.363 -7.816)" fill="#a3a3a3"/>
    <path id="Path_416" data-name="Path 416" d="M220.678,389.578l-1.146,3.438,3.438-1.146-1.146-1.146Z" transform="translate(-170.205 -363.016)" fill="#a3a3a3"/>
    <path id="Path_417" data-name="Path 417" d="M37.67,24.488a2.341,2.341,0,0,0,1.673.684l11.064-.055,5.356-5.356L55.711,6.978,51.877,7h-.016a3.178,3.178,0,0,1-3.177-3.162L48.666,0,39.223.045a2.361,2.361,0,0,0-2.35,2.373l.1,20.4A2.346,2.346,0,0,0,37.67,24.488ZM47.3,15.07H45.919a.408.408,0,0,1,0-.816H47.3a.408.408,0,0,1,0,.816Zm-6.721-4.278H52.076a.408.408,0,0,1,0,.816H40.582a.408.408,0,0,1,0-.816Zm0,3.462h3.583a.408.408,0,1,1,0,.816H40.582a.408.408,0,0,1,0-.816Z" fill="#a3a3a3"/>
    <path id="Path_418" data-name="Path 418" d="M243.514,288.515l1.324,1.324,6.681-6.681-2.649-2.649-6.681,6.681Z" transform="translate(-191.318 -261.384)" fill="#a3a3a3"/>
    <path id="Path_419" data-name="Path 419" d="M348.643,255.681l1.2-1.2,2.649,2.649-1.2,1.2Z" transform="translate(-290.513 -237.133)" fill="#a3a3a3"/>
  </g>
</svg>
