<svg xmlns="http://www.w3.org/2000/svg" width="117.637" height="122.919" viewBox="0 0 117.637 122.919"><g transform="translate(-11.001 0)"><path d="M69.819,22A58.821,58.821,0,0,0,38.535,130.633l30.436,8.995c.283,0,.565.011.849.011A58.818,58.818,0,1,0,69.819,22Z" transform="translate(0 -16.72)" fill="#4fabf7"/><path d="M190.829,9.382a22.169,22.169,0,0,1-6.106-4.351c-5.331-5.645-18.553-8.1-24.832,1.068a3.962,3.962,0,0,1-1.613,1.344C155.146,8.895,147.52,14.165,155.1,27.4a43.321,43.321,0,0,1,3.7,8.017c1.41-1.6,2.682-3.5,2.731-5.186a10.657,10.657,0,0,0-.835-4.171c-.451-1.235-.749-2.05-.153-2.863.837-1.142,2.238-.879,3.271-.253a1.971,1.971,0,0,1,.913,1.754l-.035,1.23a1.616,1.616,0,0,0,3.227.176c.465-5.858,1.346-9.926,2.359-10.882.8-.756,2.664-.52,5.021-.222a28.254,28.254,0,0,0,9.8-.014c-.022.089-.045.19-.069.3l.553-.765a29.337,29.337,0,0,0,5.385-2.708,1.4,1.4,0,0,0-.135-2.426Z" transform="translate(-107.032 0)" fill="#3c58a0"/><path d="M158.278,26.753c-3.132,1.451-10.758,6.721-3.182,19.955a43.321,43.321,0,0,1,3.7,8.017c1.41-1.6,2.682-3.5,2.731-5.186a10.657,10.657,0,0,0-.835-4.171c-.451-1.235-.749-2.05-.153-2.863.837-1.142,2.238-.879,3.271-.253a1.971,1.971,0,0,1,.913,1.754l-.035,1.23a1.616,1.616,0,0,0,3.227.176c.437-5.507,1.242-9.431,2.178-10.676-9.7-.5-10.2-9.326-10.2-9.326a3.965,3.965,0,0,1-1.613,1.343Z" transform="translate(-107.032 -19.31)" fill="#2a428c"/><path d="M136.157,183.829c-.294-.733-.673-1.569-1.067-2.459l.007.038c-2.741-3.263-7.8-4.838-14.748-7-.26-.126-3.9-.9-6.04-3.544a5.1,5.1,0,0,1-1.1-2.149c-4.968,4.813-17.234,18.926-12.307,37.064,3.623,13.336,4.372,26.982,4.379,35.9a58.483,58.483,0,0,0,21.482,8.515l7,.831,0,0q1.738.1,3.5.1l.142,0c.665-4.644,3.059-21.05,5.443-33.406C145.657,203.185,136.157,183.829,136.157,183.829Z" transform="translate(-67.448 -128.209)" fill="#3c58a0"/><path d="M131.083,198.981c-9.931-4.813-6.4-16.052-5.452-18.58a.947.947,0,0,0-.12-.888,2.508,2.508,0,0,1-.167-2.643.974.974,0,0,0-.027-.875c-1.527-.516-3.184-1.033-4.967-1.589-.26-.126-3.9-.9-6.04-3.544a5.1,5.1,0,0,1-1.1-2.149c-4.968,4.813-17.234,18.926-12.307,37.064,3.623,13.336,4.372,26.982,4.379,35.9a58.483,58.483,0,0,0,21.482,8.515l7,.831,0,0q1.738.1,3.5.1l.142,0c.665-4.644,3.059-21.05,5.443-33.406a31.173,31.173,0,0,0,.514-6.308C138.488,207.952,140.048,203.325,131.083,198.981Z" transform="translate(-67.448 -128.209)" fill="#2a428c"/><path d="M172.819,313.987a10.251,10.251,0,0,0-3.037-2.074,14.232,14.232,0,0,1-6.072-5.157,49.244,49.244,0,0,0,3.67,18.21c4.41,10.088,10.036,20.519,7.963,30.124a58.956,58.956,0,0,0,7.024.834,27.861,27.861,0,0,0-.92-18.256C178,328.918,174.242,321.268,172.819,313.987Z" transform="translate(-116.048 -233.111)" fill="#bbea49"/><path d="M170.561,332.09c1.5-5.562,7.09-3.659,7.091-3.659a78.6,78.6,0,0,1-4.833-14.444,10.251,10.251,0,0,0-3.036-2.074,14.232,14.232,0,0,1-6.072-5.157,49.242,49.242,0,0,0,3.67,18.21c1.032,2.361,2.13,4.74,3.181,7.124Z" transform="translate(-116.047 -233.111)" fill="#9fd332"/><path d="M202.127,70.1c-2.485-4.15-.665-10.115-.665-10.115-7.2,1.79-13.585-1.4-15.548.452-1.541,1.455-2.235,8.214-2.462,11.05a1.308,1.308,0,0,1-1.2,1.222,1.27,1.27,0,0,1-1.337-1.3l.036-1.242a2.309,2.309,0,0,0-1.081-2.048c-1.252-.759-2.814-.905-3.731.344-1.309,1.785,1.026,3.587.921,7.23-.064,2.239-2.469,4.935-4.313,6.681a.893.893,0,0,1,.37.365,7.691,7.691,0,0,0,4.046,4.717c3.122,1.5,8.105,4.415,10.216,5.272a4.147,4.147,0,0,1,1.311.91,8.676,8.676,0,0,1-.3-2.662c.463-6.434,7.742-.006,10.092-1.651,3.572-2.5.8-10.759,2.678-11.206,3.834-.913,3.449-3.865.964-8.014Z" transform="translate(-122.914 -45.474)" fill="#f9ba8f"/><path d="M180.913,95.771l.036-1.242a2.309,2.309,0,0,0-1.081-2.048c-1.252-.759-2.814-.905-3.731.344-1.309,1.785,1.026,3.587.921,7.23-.064,2.239-2.469,4.935-4.313,6.681a.892.892,0,0,1,.37.365,7.692,7.692,0,0,0,4.046,4.717c3.122,1.5,8.1,4.415,10.216,5.272a4.146,4.146,0,0,1,1.311.91,8.678,8.678,0,0,1-.3-2.662c.231-3.218,2.168-3.218,4.34-2.62A16.477,16.477,0,0,1,182.25,97.076a1.27,1.27,0,0,1-1.337-1.3Z" transform="translate(-122.913 -69.836)" fill="#ffaa7b"/><path d="M176.473,166.092a5.21,5.21,0,0,0-2.825-3.443c-2.1-.853-7.054-3.752-10.2-5.265a7.484,7.484,0,0,1-3.917-4.578,1.17,1.17,0,0,0-1.849-.325l-2.761,2.6a1.176,1.176,0,0,0-.295,1.266s.72,3.681,6.661,5.533c7.382,2.3,12.682,3.876,15.412,7.309a.192.192,0,0,0,.337-.157Z" transform="translate(-109.087 -115.631)" fill="#bbea49"/><g transform="translate(66.21 63.881)"><path d="M284.742,267.749c-.093.006-.186.014-.28.018-.278.013-.557.021-.838.021h0a17.445,17.445,0,0,1-7.535-1.7,8.221,8.221,0,0,1-1.27,1.8c-2.377,2.378-8.556,6.3-10.532,12.31a.4.4,0,0,1-.73.06,25.245,25.245,0,0,0-4.37-5.893c-1.818,5.026-6.769,15.09-18.223,19.562a29.223,29.223,0,0,0,11.588,4.854s8.327,6.282,15.111,4.322a3.009,3.009,0,0,1,1.407-.07,4.35,4.35,0,0,0,3.388-.579,4.124,4.124,0,0,0,1.59-2.862,2.845,2.845,0,0,1,.4-1.165,82.673,82.673,0,0,0,10.765-30.711c-.156.015-.313.024-.47.034Z" transform="translate(-240.964 -266.085)" fill="#f9ba8f"/><path d="M259.333,336.747l-3.263-8.982A30.673,30.673,0,0,1,240.964,340.8a29.226,29.226,0,0,0,11.588,4.854c-1.505-7.245,6.782-8.906,6.782-8.906Z" transform="translate(-240.964 -312.957)" fill="#fcad6d"/></g><path d="M311.245,266.086a8.22,8.22,0,0,1-1.271,1.8c-2.377,2.377-8.556,6.3-10.532,12.31a.4.4,0,0,1-.73.06,25.247,25.247,0,0,0-4.37-5.893,36.109,36.109,0,0,1-7.117,11.9c1.018.543,2.253,2.13,3.79,2.595,11.521,3.481,11.7,2.675,13.922.454s10.57-14.4,10.57-21.834a17.407,17.407,0,0,1-4.262-1.394Z" transform="translate(-209.909 -202.205)" fill="#fcad6d"/><path d="M248.889,292.131c-1.746,4.93-6.73,15.329-18.646,19.557A29.907,29.907,0,0,0,233,313.852c11.685-4.4,16.524-14.77,18.184-19.549-.674-.7-1.438-1.433-2.3-2.172Z" transform="translate(-166.607 -221.997)" fill="#dae2fe"/><path d="M241.484,343.073a28.531,28.531,0,0,1-11.241,7.327A29.892,29.892,0,0,0,233,352.564a28.62,28.62,0,0,0,11.194-7.652,11.943,11.943,0,0,1-2.713-1.839Z" transform="translate(-166.607 -260.709)" fill="#aab9f2"/><path d="M181.837,228.657a3.631,3.631,0,0,1-1.738-1.979l-.749-2.077a14.171,14.171,0,1,0-19.094,17.749,10.146,10.146,0,0,1,4.5,3.9,31.725,31.725,0,0,0,6.118,7.171c11.921-4.262,16.88-14.708,18.6-19.6a39.384,39.384,0,0,0-7.639-5.165Z" transform="translate(-107.032 -163.547)" fill="#4f71b6"/><path d="M170.667,234.391c-9.931-4.813-6.4-16.052-5.452-18.58a.945.945,0,0,0,.043-.5,14.179,14.179,0,0,0-5,27.111,10.147,10.147,0,0,1,4.5,3.9,31.727,31.727,0,0,0,6.118,7.171,28.536,28.536,0,0,0,11.215-7.349c-3.861-3.373-3.03-7.687-11.423-11.755Z" transform="translate(-107.032 -163.619)" fill="#3c58a0"/><circle cx="15.381" cy="15.381" r="15.381" transform="translate(93.468 33.092)" fill="#6289cc"/><path d="M378.816,176.517a3.109,3.109,0,0,1-.426-1.626.8.8,0,0,0-.733-.789c-5.105-.441-4.633-5.132-4.4-6.421a.8.8,0,0,0-.145-.615l-5.181-7.058a.8.8,0,0,0-.564-.317c-4.875-.517-4.864-4.286-4.6-6a.807.807,0,0,0-.665-.911,2.65,2.65,0,0,1-1.658-.9,15.374,15.374,0,0,0,18.376,24.637Z" transform="translate(-261.115 -115.417)" fill="#4f71b6"/><g transform="translate(91.321 30.964)"><path d="M363.111,164.077a17.55,17.55,0,1,1,17.55-17.55A17.57,17.57,0,0,1,363.111,164.077Zm0-30.756a13.206,13.206,0,1,0,13.206,13.206A13.221,13.221,0,0,0,363.111,133.321Z" transform="translate(-345.561 -128.977)" fill="#4f71b6"/></g><path d="M373.956,170.683l-.016,0a2.648,2.648,0,0,1-2.424-2.818.788.788,0,0,0-.26-.577A13.2,13.2,0,1,1,355.673,146a.822.822,0,0,0-.449-.243,2.784,2.784,0,0,1-2.306-3.125,17.539,17.539,0,1,0,21.039,28.055Z" transform="translate(-254.241 -108.386)" fill="#3c58a0"/><circle cx="4.781" cy="4.781" r="4.781" transform="translate(102.64 51.107) rotate(-67.794)" fill="#dae2fe"/><path d="M11,123.644a58.644,58.644,0,0,0,18.5,42.821c1.871-5.163-.31-13.285-3.56-24.736-6.256-22.043,5.927-39.037,11.36-49.967,3.25-6.537-1.04-10.932-5.013-13.408A58.7,58.7,0,0,0,11,123.644Z" transform="translate(0 -59.543)" fill="#73c3f9"/><path d="M161.285,161.876c2.1.653,4.024,1.248,5.773,1.844-1.845-2.875,1.036-3.911,1.036-3.911-1.637-.883-3.307-1.78-4.649-2.425a7.484,7.484,0,0,1-3.917-4.578,1.17,1.17,0,0,0-1.849-.325l-2.761,2.6a1.176,1.176,0,0,0-.295,1.266s.72,3.681,6.661,5.533Z" transform="translate(-109.087 -115.631)" fill="#9fd332"/><path d="M322.944,35.753c.2,2.335,0,4.949-1.5,6.454-5.756,5.756-2.326,15.926,3.541,15.926,4.9,0,12.068-7.924,23.71-4.486a58.919,58.919,0,0,0-25.747-17.9Z" transform="translate(-233.661 -27.17)" fill="#73c3f9"/></g></svg>