<svg xmlns="http://www.w3.org/2000/svg" width="124.894" height="124.825" viewBox="0 0 124.894 124.825"><g transform="translate(0.001)"><path d="M124.825,62.412a62.409,62.409,0,0,1-2.25,16.663q-.336,1.224-.723,2.425a61.465,61.465,0,0,1-2.591,6.708q-.89,1.964-1.915,3.854-1.452,2.69-3.159,5.214c-.446.662-.9,1.312-1.376,1.956q-.322.445-.655.879a62.383,62.383,0,0,1-88.928,10.883q-.945-.76-1.857-1.559a62.838,62.838,0,0,1-4.879-4.754q-1.035-1.119-2.01-2.29-.933-1.116-1.816-2.28s0,0,0-.006q-1.388-1.827-2.637-3.757Q9.365,95.341,8.75,94.3a62.417,62.417,0,1,1,116.075-31.89Z" transform="translate(-0.001)" fill="#f974ac"/><path d="M.639,96.535a127.513,127.513,0,0,0,29.54,24.909,2.586,2.586,0,0,0,3.582-.9l8.526-14.626a2.582,2.582,0,0,0-.875-3.5A105.432,105.432,0,0,1,17.5,82.25a2.582,2.582,0,0,0-3.6-.272L.924,92.853A2.583,2.583,0,0,0,.639,96.535Z" transform="translate(0 -61.525)" fill="#36b990"/><g transform="translate(2.303 22.161)"><path d="M20.953,107.437l7.066-5.921a4.179,4.179,0,0,0,.493.494,4.052,4.052,0,0,0,5.339-.1,107.631,107.631,0,0,0,18.6,15.682,4.051,4.051,0,0,0,.8,5.279,4.121,4.121,0,0,0,.572.4l-4.643,7.964a4.047,4.047,0,0,0-5.465,1.338,124.909,124.909,0,0,1-23.157-19.527,4.049,4.049,0,0,0,.394-5.612Z" transform="translate(-17.848 -98.914)" fill="#77d9a5"/><path d="M9.445,133.061l1.307-1.1a1.706,1.706,0,0,1,0,2.2,1.732,1.732,0,0,1-.175.178Q10.006,133.7,9.445,133.061Z" transform="translate(-9.445 -121.935)" fill="#77d9a5"/><path d="M58.516,91.944l1.307-1.1q.563.642,1.136,1.274a1.706,1.706,0,0,1-2.236.03A1.589,1.589,0,0,1,58.516,91.944Z" transform="translate(-46.546 -90.848)" fill="#77d9a5"/><path d="M158.556,172.66q.719.457,1.448.9l-.859,1.474a1.64,1.64,0,0,1-.241-.17A1.706,1.706,0,0,1,158.556,172.66Z" transform="translate(-121.987 -152.703)" fill="#77d9a5"/><path d="M123.729,231.326a1.707,1.707,0,0,1,2.163-.373l-.859,1.474q-.727-.443-1.451-.9A1.868,1.868,0,0,1,123.729,231.326Z" transform="translate(-95.74 -196.601)" fill="#77d9a5"/></g><path d="M60.139,136.839c-2.807,3.329-2.685,8.048.271,10.54s7.628,1.815,10.435-1.514,2.685-8.047-.271-10.54S62.945,133.51,60.139,136.839Z" transform="translate(-43.936 -101.179)" fill="#36b990"/><path d="M67.16,152.386c-1.409-1.27-1.962-3.018-1.309-3.79a1.357,1.357,0,0,1,1.677-.322c.507.428.316,1.487,1.079,2.4l1.649-1.957c-.755-1.36-1.621-2.98-.317-4.525s3.05-1.314,4.484-.415l.285-.338a.536.536,0,0,1,.734.061c.23.193.327.544.185.713l-.255.3c.729.656,1.979,2.04,1.277,2.874-.275.326-1.053.807-1.585.359-.4-.336-.3-.917-1.037-1.639l-1.488,1.764c.754,1.338,1.555,2.985.18,4.616a3.359,3.359,0,0,1-4.6.627l-.3.351c-.143.169-.5.132-.734-.061a.537.537,0,0,1-.184-.714Zm4.826-5.479,1.212-1.438c-.635-.35-1.1-.265-1.343.025C71.56,145.844,71.691,146.326,71.986,146.907Zm-1.208,2.805-1.365,1.619a1.051,1.051,0,0,0,1.379-.14C71.129,150.792,71.04,150.283,70.778,149.712Z" transform="translate(-49.583 -108.168)" fill="#77d9a5"/><path d="M120.27,187.576a2.178,2.178,0,1,1-2.178-2.178A2.178,2.178,0,0,1,120.27,187.576Z" transform="translate(-87.64 -140.173)" fill="#36b990"/><path d="M48.427,127a2.178,2.178,0,1,1-2.178-2.178A2.178,2.178,0,0,1,48.427,127Z" transform="translate(-33.321 -94.372)" fill="#36b990"/><path d="M150.683,45.5a127.525,127.525,0,0,0,32.2-21.352,2.584,2.584,0,0,0,.14-3.691L171.386,8.161a2.582,2.582,0,0,0-3.6-.143A105.4,105.4,0,0,1,141.711,25.3a2.582,2.582,0,0,0-1.272,3.376l6.79,15.509A2.585,2.585,0,0,0,150.683,45.5Z" transform="translate(-106.018 -5.56)" fill="#36b990"/><path d="M160.124,55.118l-3.7-8.445a4.052,4.052,0,0,0,2.017-5.488,107.736,107.736,0,0,0,10.519-6.147,107.785,107.785,0,0,0,9.757-7.3,4.058,4.058,0,0,0,5.84.279l6.338,6.694a4.054,4.054,0,0,0-.59,5.18,4,4,0,0,0,.338.44,125.181,125.181,0,0,1-12.114,9.138,125.291,125.291,0,0,1-13.133,7.6,3.86,3.86,0,0,0-.274-.483A4.052,4.052,0,0,0,160.124,55.118Z" transform="translate(-118.269 -20.975)" fill="#77d9a5"/><path d="M176.125,149.894l-.684-1.563a1.706,1.706,0,0,1,2.107.619,1.778,1.778,0,0,1,.123.218Q176.9,149.538,176.125,149.894Z" transform="translate(-132.646 -112.04)" fill="#77d9a5"/><path d="M150.45,89.427l-.684-1.563q.775-.359,1.543-.732a1.706,1.706,0,0,1-.6,2.154A1.6,1.6,0,0,1,150.45,89.427Z" transform="translate(-113.234 -65.878)" fill="#77d9a5"/><path d="M255.109,17.967q.643-.562,1.274-1.135l1.174,1.238a1.673,1.673,0,0,1-.231.184A1.707,1.707,0,0,1,255.109,17.967Z" transform="translate(-192.88 -12.726)" fill="#77d9a5"/><path d="M302.454,65.494a1.705,1.705,0,0,1,.249-2.181l1.174,1.238c-.421.383-.843.763-1.27,1.141A1.82,1.82,0,0,1,302.454,65.494Z" transform="translate(-228.462 -47.869)" fill="#77d9a5"/><path d="M199.1,67.6c2.406,3.629,6.969,4.839,10.193,2.7s3.885-6.81,1.479-10.44-6.969-4.839-10.192-2.7S196.691,63.976,199.1,67.6Z" transform="translate(-149.437 -42.422)" fill="#36b990"/><path d="M215.171,73.834c-1.615.995-3.448,1.034-4.006.191a1.358,1.358,0,0,1,.162-1.7c.552-.367,1.516.113,2.6-.362l-1.415-2.133c-1.517.343-3.315.719-4.433-.966s-.4-3.3.861-4.42l-.244-.369c-.123-.184-.026-.5.264-.687.251-.166.615-.161.737.024l.218.329c.834-.515,2.515-1.326,3.117-.417.236.355.479,1.237-.1,1.622-.434.288-.964.032-1.864.534l1.274,1.923c1.5-.347,3.3-.654,4.481,1.125a3.359,3.359,0,0,1-.692,4.591l.253.382c.122.184-.014.521-.265.687a.536.536,0,0,1-.736-.024Zm-3.9-6.172L210.23,66.1c-.515.512-.563.981-.353,1.3C210.129,67.773,210.629,67.784,211.268,67.663Zm2.353,1.948,1.17,1.765a1.053,1.053,0,0,0,.252-1.363C214.757,69.578,214.244,69.52,213.622,69.61Z" transform="translate(-156.909 -47.567)" fill="#77d9a5"/><path d="M261.638,53.944a2.178,2.178,0,1,1-2.178-2.178A2.179,2.179,0,0,1,261.638,53.944Z" transform="translate(-194.523 -39.139)" fill="#36b990"/><path d="M183.31,105.873a2.179,2.179,0,1,1-2.179-2.178A2.178,2.178,0,0,1,183.31,105.873Z" transform="translate(-135.301 -78.4)" fill="#36b990"/><path d="M307.14,214.146a127.522,127.522,0,0,0,36.459-12.8,2.586,2.586,0,0,0,1.041-3.545l-8.27-14.772a2.582,2.582,0,0,0-3.46-1.023A105.4,105.4,0,0,1,303.4,192.368a2.583,2.583,0,0,0-2.061,2.962q1.388,8.35,2.777,16.7A2.586,2.586,0,0,0,307.14,214.146Z" transform="translate(-227.803 -137.385)" fill="#36b990"/><path d="M315.208,220.715l-1.513-9.094a4.14,4.14,0,0,0,.678-.174A4.053,4.053,0,0,0,317,206.8a107.582,107.582,0,0,0,22.955-8.058,4.055,4.055,0,0,0,5.593,1.7l4.5,8.045a4.052,4.052,0,0,0-1.842,4.877,3.952,3.952,0,0,0,.219.51A124.9,124.9,0,0,1,319.842,223.9a3.94,3.94,0,0,0-.147-.535A4.053,4.053,0,0,0,315.208,220.715Z" transform="translate(-237.175 -150.259)" fill="#77d9a5"/><path d="M321.753,299.926l-.28-1.683a1.708,1.708,0,0,1,1.956,1.359Q322.592,299.771,321.753,299.926Z" transform="translate(-243.056 -225.474)" fill="#77d9a5"/><path d="M311.253,235.822l-.28-1.682q.838-.16,1.674-.331a1.705,1.705,0,0,1-1.109,1.941A1.564,1.564,0,0,1,311.253,235.822Z" transform="translate(-235.117 -176.775)" fill="#77d9a5"/><path d="M429.937,192.019q.761-.387,1.514-.788l.834,1.488a1.7,1.7,0,0,1-2.348-.7Z" transform="translate(-325.062 -144.584)" fill="#77d9a5"/><path d="M463.934,249.143a1.706,1.706,0,0,1,.777-2.053l.834,1.488q-.753.4-1.51.795A1.708,1.708,0,0,1,463.934,249.143Z" transform="translate(-350.693 -186.817)" fill="#77d9a5"/><path d="M358.378,229.716c1.442,4.109,5.568,6.4,9.217,5.121s5.438-5.649,4-9.758-5.569-6.4-9.218-5.12S356.936,225.608,358.378,229.716Z" transform="translate(-270.581 -166.035)" fill="#36b990"/><path d="M374.888,237.8c-1.81.568-3.6.157-3.93-.8-.178-.507.008-1.409.575-1.608.626-.219,1.442.482,2.613.289l-.848-2.416c-1.555-.04-3.389-.116-4.06-2.025-.664-1.893.418-3.295,1.92-4.073l-.147-.417c-.073-.209.1-.486.425-.6.284-.1.635,0,.708.2l.131.373c.935-.294,2.762-.669,3.123.36.142.4.161,1.317-.494,1.548-.493.172-.943-.2-1.938.06l.764,2.177c1.534.031,3.361.176,4.068,2.19a3.359,3.359,0,0,1-1.8,4.281l.152.432c.073.209-.142.5-.426.6a.537.537,0,0,1-.708-.2Zm-2.269-6.941L372,229.09c-.624.37-.787.812-.661,1.17C371.487,230.692,371.969,230.824,372.619,230.864Zm1.8,2.465.7,2a1.051,1.051,0,0,0,.579-1.259C375.531,233.577,375.048,233.394,374.423,233.329Z" transform="translate(-279.017 -170.958)" fill="#77d9a5"/><path d="M426.5,228.448a2.178,2.178,0,1,1-2.178-2.178A2.178,2.178,0,0,1,426.5,228.448Z" transform="translate(-319.173 -171.075)" fill="#36b990"/><path d="M337.833,259.573a2.178,2.178,0,1,1-2.178-2.178A2.178,2.178,0,0,1,337.833,259.573Z" transform="translate(-252.132 -194.608)" fill="#36b990"/><path d="M395.763,273.5q-.336,1.224-.723,2.425a61.469,61.469,0,0,1-2.591,6.708q-.89,1.964-1.915,3.854-1.452,2.69-3.159,5.214c-.446.662-.9,1.312-1.376,1.956a127.549,127.549,0,0,1-24.033-21.347,2.584,2.584,0,0,1,.286-3.681l12.977-10.875a2.583,2.583,0,0,1,3.6.272A105.321,105.321,0,0,0,395.763,273.5Z" transform="translate(-273.189 -194.421)" fill="#36b990"/><path d="M410.587,291.149A61.464,61.464,0,0,1,408,297.857q-.89,1.964-1.915,3.854-1.452,2.69-3.159,5.214a124.553,124.553,0,0,1-21.031-18.1,4.26,4.26,0,0,0,.387-.4,4.054,4.054,0,0,0,.008-5.215l7.066-5.92a3.947,3.947,0,0,0,.494.494,4.051,4.051,0,0,0,5.337-.1,107.863,107.863,0,0,0,8.855,8.368Q407.206,288.721,410.587,291.149Z" transform="translate(-288.736 -209.649)" fill="#77d9a5"/><path d="M370.777,308.834l1.307-1.1a1.706,1.706,0,0,1,0,2.2,1.826,1.826,0,0,1-.174.178Q371.337,309.476,370.777,308.834Z" transform="translate(-280.333 -232.671)" fill="#77d9a5"/><path d="M419.844,267.717l1.307-1.1q.563.642,1.136,1.274a1.706,1.706,0,0,1-2.235.03A1.66,1.66,0,0,1,419.844,267.717Z" transform="translate(-317.431 -201.583)" fill="#77d9a5"/><path d="M421.462,312.62c-2.806,3.329-2.684,8.048.271,10.541s7.628,1.815,10.435-1.513,2.684-8.048-.272-10.541S424.269,309.291,421.462,312.62Z" transform="translate(-317.121 -234.081)" fill="#36b990"/><path d="M436.7,320.281l.254-.3c.143-.171.046-.519-.183-.713a.537.537,0,0,0-.734-.061l-.286.338c-1.434-.9-3.192-1.12-4.486.416s-.435,3.164.318,4.524l-1.65,1.956c-.759-.909-.571-1.969-1.078-2.4a1.354,1.354,0,0,0-1.676.323c-.653.772-.1,2.519,1.309,3.79l-.254.3a.536.536,0,0,0,.183.713c.23.194.591.232.734.062l.3-.35a3.361,3.361,0,0,0,4.6-.626c1.375-1.63.573-3.279-.181-4.617l1.487-1.765c.734.723.639,1.3,1.037,1.64.533.449,1.309-.033,1.585-.359C438.683,322.321,437.431,320.938,436.7,320.281Zm-4.579,6.682a1.056,1.056,0,0,1-1.381.141l1.366-1.621C432.373,326.056,432.461,326.563,432.125,326.962Zm1.193-4.284c-.3-.581-.426-1.062-.131-1.414.245-.291.709-.374,1.343-.023Z" transform="translate(-322.774 -241.063)" fill="#77d9a5"/><path d="M480.092,361.281q-.89,1.964-1.915,3.854a1.742,1.742,0,0,1-.155-.117,2.177,2.177,0,0,1,2.071-3.737Z" transform="translate(-360.832 -273.073)" fill="#36b990"/><path d="M409.755,302.772a2.178,2.178,0,1,1-2.178-2.178A2.178,2.178,0,0,1,409.755,302.772Z" transform="translate(-306.509 -227.269)" fill="#36b990"/><path d="M149.217,174.248a43.543,43.543,0,0,1-1.047,9.765q-.783,1.032-1.608,2.03-.929,1.124-1.908,2.2a62.219,62.219,0,0,1-5.671,5.506q-1.761,1.509-3.629,2.881a61.77,61.77,0,0,1-5.51,3.623q-1.05.616-2.13,1.187-.918.489-1.854.948-1.689.829-3.437,1.559a62.485,62.485,0,0,1-73.746-19.94,43.48,43.48,0,0,1-1.044-9.759c0-28.052,22.741-63.279,50.793-63.279S149.217,146.2,149.217,174.248Z" transform="translate(-36.015 -83.9)" fill="#40649c"/><path d="M209.158,262.27c-7.107-.237-12.912-3.91-12.912-7.7,0-2.013,1.777-4.975,4.028-4.975,2.488,0,4.5,3.494,8.884,4.264v-9.6c-5.449-2.072-11.846-4.619-11.846-12.2,0-7.522,5.568-11.135,11.846-12.023V218.38c0-.829.948-1.6,2.251-1.6,1.125,0,2.251.77,2.251,1.6v1.481c3.672.119,10.6,1.066,10.6,5.153,0,1.6-1.066,4.857-3.672,4.857-1.954,0-3.08-1.9-6.93-2.191v8.648c5.39,2.013,11.669,4.8,11.669,12.793,0,7.345-4.739,11.787-11.669,12.912v1.718c0,.829-1.125,1.6-2.251,1.6-1.3,0-2.251-.77-2.251-1.6Zm.592-27.364v-7.048c-2.665.533-3.79,1.9-3.79,3.317C205.959,232.891,207.5,233.957,209.75,234.905Zm3.317,10.957V253.8c2.014-.474,3.613-1.6,3.613-3.731C216.68,248.114,215.2,246.87,213.067,245.862Z" transform="translate(-148.376 -163.901)" fill="#fee175"/><path d="M194.317,22.388c1.709-4.73,27.873-21.341-15.46-21.341S161.687,17.658,163.4,22.388" transform="translate(-116.446 -0.792)" fill="#40649c"/><path d="M72.022,174.248c0,16.3,3.991,26.593,10.2,32.351A62.472,62.472,0,0,1,48.68,184.012a43.476,43.476,0,0,1-1.047-9.765c0-28.052,22.741-63.279,50.793-63.279C83.845,110.969,72.022,146.2,72.022,174.248Z" transform="translate(-36.015 -83.9)" fill="#274b7b"/><path d="M170.822,22.4H163.4c-1.7-4.713-27.686-21.223,14.994-21.34C156.521,1.285,169.938,17.7,170.822,22.4Z" transform="translate(-116.447 -0.798)" fill="#274b7b"/><path d="M212.714,92.582a5.092,5.092,0,0,1-5.09,5.09H176.7a5.09,5.09,0,0,1,0-10.181h30.92a5.088,5.088,0,0,1,5.09,5.09Z" transform="translate(-129.752 -66.15)" fill="#fcbc77"/><path d="M246.666,92.582a5.092,5.092,0,0,1-5.09,5.09H221.61a5.09,5.09,0,0,1,0-10.181h19.966a5.088,5.088,0,0,1,5.09,5.09Z" transform="translate(-163.704 -66.15)" fill="#fee175"/><path d="M355,47.9A127.523,127.523,0,0,0,382.324,20.58a2.585,2.585,0,0,0-.6-3.646L367.876,7.2a2.582,2.582,0,0,0-3.561.577A105.439,105.439,0,0,1,342.2,29.893a2.582,2.582,0,0,0-.576,3.561l9.735,13.852A2.585,2.585,0,0,0,355,47.9Z" transform="translate(-257.934 -5.088)" fill="#36b990"/><path d="M365.489,57.173l-5.3-7.543a4.052,4.052,0,0,0,.886-5.778,108.106,108.106,0,0,0,9.089-8.115,107.879,107.879,0,0,0,8.114-9.088A4.052,4.052,0,0,0,383.6,26.3a4.109,4.109,0,0,0,.452-.535l7.542,5.3a4.051,4.051,0,0,0,.451,5.193,3.94,3.94,0,0,0,.418.365,125.294,125.294,0,0,1-10.058,11.361,125.486,125.486,0,0,1-11.361,10.059,4.171,4.171,0,0,0-.365-.419A4.052,4.052,0,0,0,365.489,57.173Z" transform="translate(-272.326 -19.478)" fill="#77d9a5"/><path d="M388.43,162.828l-.981-1.4a1.707,1.707,0,0,1,2.351.377Q389.118,162.325,388.43,162.828Z" transform="translate(-292.938 -121.819)" fill="#77d9a5"/><path d="M351.618,108.243l-.981-1.4q.688-.507,1.366-1.024a1.707,1.707,0,0,1-.159,2.231A1.678,1.678,0,0,1,351.618,108.243Z" transform="translate(-265.106 -80.01)" fill="#77d9a5"/><path d="M440.246,17.584q.517-.679,1.023-1.365l1.4.98a1.632,1.632,0,0,1-.189.226A1.708,1.708,0,0,1,440.246,17.584Z" transform="translate(-332.856 -12.263)" fill="#77d9a5"/><path d="M496.046,55.215a1.706,1.706,0,0,1-.189-2.188l1.4.981q-.5.689-1.018,1.37A1.78,1.78,0,0,1,496.046,55.215Z" transform="translate(-374.667 -40.092)" fill="#77d9a5"/><path d="M398.234,73.712c3.079,3.079,7.791,3.358,10.525.623s2.455-7.447-.623-10.524-7.791-3.358-10.525-.624S395.155,70.633,398.234,73.712Z" transform="translate(-299.199 -46.351)" fill="#36b990"/><path d="M413.944,78.111c-1.386,1.3-3.174,1.7-3.889.984a1.359,1.359,0,0,1-.179-1.7c.47-.47,1.508-.191,2.48-.872l-1.81-1.809c-1.419.636-3.106,1.362-4.537-.068s-1.05-3.151-.034-4.5l-.313-.313a.537.537,0,0,1,.123-.726c.212-.212.57-.279.727-.123l.279.28c.715-.671,2.2-1.8,2.972-1.028.3.3.715,1.117.223,1.608-.368.369-.939.224-1.721.894l1.632,1.632c1.4-.637,3.105-1.3,4.615.212a3.359,3.359,0,0,1,.234,4.637l.324.324c.156.156.09.514-.123.726a.537.537,0,0,1-.726.123Zm-5.05-5.274-1.33-1.329c-.4.6-.357,1.073-.09,1.341C407.8,73.173,408.29,73.083,408.894,72.837Zm2.692,1.442,1.5,1.5a1.053,1.053,0,0,0-.023-1.386C412.692,74.023,412.178,74.066,411.586,74.279Z" transform="translate(-306.266 -51.394)" fill="#77d9a5"/><path d="M454.341,51.291a2.178,2.178,0,1,1-2.178-2.178A2.178,2.178,0,0,1,454.341,51.291Z" transform="translate(-340.219 -37.133)" fill="#36b990"/><path d="M387.888,117.744a2.178,2.178,0,1,1-2.178-2.178A2.178,2.178,0,0,1,387.888,117.744Z" transform="translate(-289.976 -87.376)" fill="#36b990"/><path d="M310.792,392.178a105.484,105.484,0,0,0,27.276,6.351q-.929,1.124-1.908,2.2a62.219,62.219,0,0,1-5.671,5.506q-1.761,1.509-3.629,2.881a61.763,61.763,0,0,1-5.51,3.623q-1.05.616-2.13,1.187-.918.489-1.854.948-1.689.829-3.437,1.559-5.747-1.6-11.341-3.737a2.586,2.586,0,0,1-1.472-3.388q3.186-7.841,6.374-15.685A2.579,2.579,0,0,1,310.792,392.178Z" transform="translate(-227.519 -296.386)" fill="#36b990"/><path d="M342.434,417.713q-1.761,1.509-3.629,2.881a61.767,61.767,0,0,1-5.51,3.623q-1.05.616-2.13,1.187-.918.489-1.854.948-5.217-1.323-10.31-3.09a3.771,3.771,0,0,0,.155-.535,4.05,4.05,0,0,0-2.432-4.608l3.469-8.541a4.064,4.064,0,0,0,5.337-2.385,107.955,107.955,0,0,0,11.744,3.246,106.674,106.674,0,0,0,10.832,1.77A62.22,62.22,0,0,1,342.434,417.713Z" transform="translate(-239.465 -307.864)" fill="#77d9a5"/><path d="M310.469,462.468l.641-1.581a1.705,1.705,0,0,1,1.026,1.941,1.685,1.685,0,0,1-.07.24Q311.264,462.773,310.469,462.468Z" transform="translate(-234.736 -348.462)" fill="#77d9a5"/><path d="M334.562,403.158l.641-1.58q.8.3,1.6.594a1.706,1.706,0,0,1-1.961,1.074A1.619,1.619,0,0,1,334.562,403.158Z" transform="translate(-252.952 -303.62)" fill="#77d9a5"/><path d="M378.588,429.794q-1.761,1.509-3.629,2.881a61.779,61.779,0,0,1-5.51,3.623q-1.05.616-2.13,1.187a7.967,7.967,0,0,1-2.576-7.946c.922-4.256,4.731-7.044,8.511-6.226A7.1,7.1,0,0,1,378.588,429.794Z" transform="translate(-275.619 -319.945)" fill="#36b990"/><path d="M381.184,430.4l.084-.388c.046-.213-.2-.478-.5-.542a.537.537,0,0,0-.677.291l-.094.432c-1.686-.125-3.342.5-3.765,2.466-.428,1.977,1.1,3,2.4,3.85l-.542,2.5c-1.1-.449-1.427-1.472-2.076-1.612-.586-.128-1.215.545-1.329,1.07-.194.891.853,2.025,2.414,2.577a61.764,61.764,0,0,0,5.51-3.623,4.516,4.516,0,0,0-2.356-2.731l.489-2.255c.988.3,1.175.854,1.684.964.68.148,1.142-.642,1.23-1.06C383.89,431.277,382.135,430.64,381.184,430.4Zm-2.647,2.513c.081-.369.451-.662,1.177-.649l-.4,1.836C378.781,433.73,378.44,433.363,378.538,432.915Zm1.729,5.533a1.053,1.053,0,0,1-1.151.77l.448-2.071C380.063,437.531,380.379,437.938,380.267,438.448Z" transform="translate(-283.271 -324.694)" fill="#77d9a5"/><path d="M343.1,437.824a2.179,2.179,0,1,1-2.179-2.179A2.179,2.179,0,0,1,343.1,437.824Z" transform="translate(-256.116 -329.377)" fill="#36b990"/><path d="M70.1,324.735a127.673,127.673,0,0,1-19.75,21.31q-.945-.76-1.857-1.559a62.835,62.835,0,0,1-4.879-4.754q-1.035-1.119-2.01-2.29-.933-1.116-1.816-2.28s0,0,0-.006Q38.4,333.33,37.148,331.4q-.662-1.009-1.277-2.048a105.45,105.45,0,0,0,16.22-17.42,2.578,2.578,0,0,1,3.559-.576q6.928,4.864,13.854,9.735A2.584,2.584,0,0,1,70.1,324.735Z" transform="translate(-27.122 -235.05)" fill="#36b990"/><path d="M69.8,340.782a124.9,124.9,0,0,1-10.058,11.362q-3.508,3.5-7.3,6.736a62.84,62.84,0,0,1-4.879-4.754q-1.035-1.119-2.01-2.29-.933-1.116-1.816-2.28s0,0,0-.006q-1.388-1.827-2.637-3.757,3.321-2.816,6.4-5.9a108.361,108.361,0,0,0,8.114-9.086,4.05,4.05,0,0,0,5.327-.352,4.215,4.215,0,0,0,.451-.535l7.543,5.3a4.054,4.054,0,0,0,.869,5.558Z" transform="translate(-31.079 -249.443)" fill="#77d9a5"/><path d="M106.492,321.737q.517-.678,1.023-1.366l1.4.981a1.622,1.622,0,0,1-.189.227A1.706,1.706,0,0,1,106.492,321.737Z" transform="translate(-80.516 -242.222)" fill="#77d9a5"/><path d="M162.291,359.372a1.707,1.707,0,0,1-.19-2.188l1.4.98q-.5.689-1.018,1.37A1.761,1.761,0,0,1,162.291,359.372Z" transform="translate(-122.326 -270.055)" fill="#77d9a5"/><path d="M64.479,377.87c3.079,3.079,7.791,3.358,10.525.623s2.455-7.447-.623-10.525-7.791-3.357-10.525-.623S61.4,374.792,64.479,377.87Z" transform="translate(-46.857 -276.315)" fill="#36b990"/><path d="M80.992,381.373a3.36,3.36,0,0,0-.234-4.639c-1.507-1.508-3.217-.848-4.613-.211l-1.633-1.63c.782-.671,1.353-.525,1.722-.895.492-.492.076-1.306-.224-1.609-.772-.77-2.257.358-2.973,1.029l-.277-.28c-.158-.156-.515-.09-.726.122a.537.537,0,0,0-.125.726l.314.313c-1.017,1.352-1.387,3.085.032,4.5s3.119.7,4.538.067l1.811,1.811c-.974.679-2.012.4-2.481.871a1.358,1.358,0,0,0,.178,1.7c.716.714,2.5.311,3.888-.983l.28.278a.537.537,0,0,0,.726-.123c.211-.212.28-.571.122-.726ZM73.719,377c-.268-.271-.313-.738.089-1.343l1.33,1.329C74.534,377.239,74.042,377.327,73.719,377Zm5.609,2.927-1.5-1.5c.591-.211,1.105-.257,1.474.111A1.053,1.053,0,0,1,79.329,379.931Z" transform="translate(-53.924 -281.355)" fill="#77d9a5"/><path d="M120.587,355.448a2.178,2.178,0,1,1-2.178-2.178A2.178,2.178,0,0,1,120.587,355.448Z" transform="translate(-87.878 -267.096)" fill="#36b990"/><path d="M61.381,422.048q-1.035-1.119-2.01-2.29a2.167,2.167,0,0,1,2.01,2.29Z" transform="translate(-44.889 -317.365)" fill="#36b990"/></g></svg>