<svg xmlns="http://www.w3.org/2000/svg" width="26" height="26.963" viewBox="0 0 26 26.963">
  <g id="view-reports" transform="translate(-8)">
    <path id="Path_422" data-name="Path 422" d="M233.3,2.548l.623.623V0H232V3.171l.623-.623A.482.482,0,0,1,233.3,2.548Z" transform="translate(-210.519)" fill="#a3a3a3"/>
    <path id="Path_423" data-name="Path 423" d="M8,22.63a1.445,1.445,0,0,0,1.444,1.444h10.93l.952-1.27a6.2,6.2,0,0,1-.571-1.374l-1.748-.25a.481.481,0,0,1-.414-.477V18.778a.482.482,0,0,1,.413-.477l1.748-.25a6.21,6.21,0,0,1,.571-1.374l-1.059-1.414a.482.482,0,0,1,.044-.629l1.362-1.362a.481.481,0,0,1,.629-.044l1.414,1.059a6.21,6.21,0,0,1,1.374-.571l.25-1.748a.481.481,0,0,1,.476-.413H26.3V1.444A1.445,1.445,0,0,0,24.852,0H24.37V4.333a.482.482,0,0,1-.3.445.472.472,0,0,1-.184.037.482.482,0,0,1-.34-.141l-1.1-1.1-1.1,1.1a.481.481,0,0,1-.822-.34V0H9.444A1.445,1.445,0,0,0,8,1.444ZM23.407,11.556H21.481v-.963h1.926ZM12.815,1.926H17.63v.963H12.815Zm-2.889,0h1.926v.963H9.926Zm0,1.926h7.7v.963h-7.7Zm0,3.852H23.407v.963H9.926Zm0,2.889H20.519v.963H9.926Zm0,2.889h9.63v.963H9.926Zm0,3.852h3.852V18.3H9.926Zm0,1.926h3.852v.963H9.926Z" fill="#a3a3a3"/>
    <path id="Path_424" data-name="Path 424" d="M277.778,282.889A2.889,2.889,0,1,1,274.889,280,2.889,2.889,0,0,1,277.778,282.889Z" transform="translate(-248.111 -263.148)" fill="#a3a3a3"/>
    <path id="Path_425" data-name="Path 425" d="M203.84,219.711a.482.482,0,0,1,.546-.021,5.233,5.233,0,0,0,1.682.7.481.481,0,0,1,.372.4l.236,1.654h1.091L208,220.79a.481.481,0,0,1,.372-.4,5.233,5.233,0,0,0,1.682-.7.482.482,0,0,1,.546.021l1.339,1,.77-.77-1-1.339a.482.482,0,0,1-.021-.546,5.234,5.234,0,0,0,.7-1.682.481.481,0,0,1,.4-.372l1.655-.236v-1.091l-1.654-.236a.481.481,0,0,1-.4-.372,5.233,5.233,0,0,0-.7-1.682.482.482,0,0,1,.021-.546l1-1.339-.77-.77-1.339,1a.482.482,0,0,1-.546.021,5.235,5.235,0,0,0-1.682-.7.481.481,0,0,1-.372-.4L207.768,208h-1.091l-.236,1.654a.481.481,0,0,1-.372.4,5.233,5.233,0,0,0-1.682.7.482.482,0,0,1-.546-.021l-1.339-1-.77.77,1,1.339a.482.482,0,0,1,.021.546,5.235,5.235,0,0,0-.7,1.682.481.481,0,0,1-.4.372l-1.655.237v1.091l1.654.236a.481.481,0,0,1,.4.372,5.233,5.233,0,0,0,.7,1.682.482.482,0,0,1-.021.546l-1,1.339.77.77Zm3.382-8.341a3.852,3.852,0,1,1-3.852,3.852A3.852,3.852,0,0,1,207.222,211.37Z" transform="translate(-180.444 -195.481)" fill="#a3a3a3"/>
  </g>
</svg>
