<?xml version="1.0" encoding="utf-8"?>
<!-- Generator: Adobe Illustrator 21.0.0, SVG Export Plug-In . SVG Version: 6.00 Build 0)  -->
<svg version="1.1" id="Layer_1" xmlns="http://www.w3.org/2000/svg" xmlns:xlink="http://www.w3.org/1999/xlink" x="0px" y="0px"
	 viewBox="0 0 87 37" style="enable-background:new 0 0 87 37;" xml:space="preserve">
<style type="text/css">
	.st0{enable-background:new    ;}
	.st1{fill:#FFFFFF;}
</style>
<g class="st0">
	<path class="st1" d="M1.3,28c-0.1,0-0.1,0-0.1-0.2L1.3,7.3c0-0.1,0-0.1,0.1-0.1h3.4c0.1,0,0.1,0,0.1,0.1v7.1l4.7-7.1
		c0.1-0.1,0.1-0.1,0.2-0.1h3.5c0.1,0,0.1,0,0.1,0.1l-5.2,8.3L14,28c0,0.1,0,0.1-0.1,0.1h-3.7c-0.1,0-0.2,0-0.2-0.1l-4.1-8.8l-1,1.7
		V28c0,0.1,0,0.2-0.1,0.2H1.3V28z"/>
	<path class="st1" d="M15.6,27.8l3.7-20.6c0-0.1,0.1-0.1,0.1-0.1h4.4c0.1,0,0.1,0,0.1,0.1l3.6,20.6c0,0.1,0,0.2-0.1,0.2h-3.3
		C24,28,24,28,24,27.8l-0.3-2.2h-4.1l-0.3,2.2c0,0.1-0.1,0.2-0.1,0.2h-3.3C15.6,28,15.6,28,15.6,27.8z M20.1,22.5H23L21.8,14
		l-0.2-1.1L21.5,14L20.1,22.5z"/>
	<path class="st1" d="M30.9,28c-0.1,0-0.1,0-0.1-0.2l0.1-20.6c0-0.1,0-0.1,0.1-0.1h6c1.1,0,2.1,0.3,3,0.8s1.6,1.2,2.2,2.1
		c0.5,0.9,0.8,1.9,0.8,3c0,0.7-0.1,1.4-0.3,2s-0.5,1.1-0.8,1.5c-0.3,0.4-0.6,0.7-0.8,0.9c1.1,1.2,1.6,2.6,1.6,4.2v6.1
		c0,0.1-0.1,0.2-0.1,0.2h-3.4c-0.1,0-0.1,0-0.1-0.1v-6.2c0-0.7-0.3-1.3-0.8-1.9c-0.5-0.5-1.1-0.8-1.9-0.8h-2v8.8
		c0,0.1,0,0.2-0.1,0.2L30.9,28L30.9,28z M34.4,15.4H37c0.6,0,1.2-0.2,1.6-0.7s0.7-1,0.7-1.7c0-0.6-0.2-1.2-0.7-1.6
		c-0.5-0.5-1-0.7-1.7-0.7h-2.6v4.7H34.4z"/>
</g>
<g class="st0">
	<path class="st1" d="M49.9,28c-0.1,0-0.1,0-0.1-0.2L45.7,7.2c0-0.1,0-0.1,0.1-0.1h3.4c0.1,0,0.1,0,0.2,0.1L51.8,21l2.4-13.7
		c0-0.1,0.1-0.1,0.1-0.1h3.4c0.1,0,0.1,0,0.1,0.1l-4.1,20.6c0,0.1-0.1,0.2-0.2,0.2h-3.6V28z"/>
	<path class="st1" d="M66.4,28.3c-1.1,0-2-0.3-2.9-0.8s-1.6-1.3-2.1-2.2c-0.5-0.9-0.8-1.9-0.8-3l0.1-15c0-0.1,0-0.1,0.1-0.1h3.4
		c0.1,0,0.1,0,0.1,0.1v15c0,0.7,0.2,1.3,0.6,1.7c0.4,0.5,1,0.7,1.6,0.7s1.2-0.2,1.6-0.7s0.6-1,0.6-1.7v-15c0-0.1,0-0.1,0.1-0.1h3.4
		c0.1,0,0.1,0,0.1,0.1l0.1,15c0,1.1-0.3,2.1-0.8,3.1c-0.5,0.9-1.2,1.7-2.1,2.2C68.5,28,67.5,28.3,66.4,28.3z"/>
	<path class="st1" d="M76.2,28c-0.1,0-0.1,0-0.1-0.2V7.2c0-0.1,0-0.1,0.1-0.1h9.6c0.1,0,0.1,0,0.1,0.1v3.4c0,0.1,0,0.1-0.1,0.1h-6.2
		v4.7h6.2c0.1,0,0.1,0,0.1,0.1v3.4c0,0.1,0,0.1-0.1,0.1h-6.2v5.2h6.2c0.1,0,0.1,0.1,0.1,0.2v3.4c0,0.1,0,0.1-0.1,0.1L76.2,28
		L76.2,28z"/>
</g>
</svg>
